<svg xmlns="http://www.w3.org/2000/svg" viewBox="0 0 230 149.97"><defs><style>.cls-1{fill:#cc2162;}</style></defs><title>Asset 7</title><g id="Layer_2" data-name="Layer 2"><g id="Layer_1-2" data-name="Layer 1"><path class="cls-1" d="M229.49,80l-.36,3.2c-3.2,30.77-25.79,56.78-53.34,64.46-23.45,6.53-47.22-.93-66.42-20.13l-31-31-4.3,4.43C57.94,117.54,39.39,122,23.74,114,12.29,108.12,3.91,96.31,1,82.45H1Q.61,80.6.39,78.72T0,74.79H.05C-.59,60.3,5.15,47.44,16,41c15.3-9,36.42-3.08,55.83,16.33l4.94,4.94L108.1,27.52C129.74,3.48,158-5.92,184.55,3.75a66,66,0,0,1,23.93,15.4A74.29,74.29,0,0,1,229.49,80ZM56.56,74.71C45.26,63.41,34.2,59,27.13,62.81c-4.83,2.6-7.3,8.83-6.61,16.15.86,7.16,4.53,13.17,9.71,15.75,7.49,3.75,17.46-.07,27-10.64l4.14-4.6ZM171.21,32.34c-14.6-5.6-30-.49-44.2,14.1L94.46,79.95l32.14,32.15c12.72,12.72,26.43,17.26,40,13,16.7-5.22,30.27-22.72,31.67-42.1l.28-3.49c1.74-20.26-9.88-40.48-27.37-47.17Zm-18.39,71.38a3.38,3.38,0,0,1-5.77-2.39v-45A3.38,3.38,0,0,1,152.83,54l22.48,22.48a3.38,3.38,0,0,1,0,4.78Z"/></g></g></svg>