<svg xmlns="http://www.w3.org/2000/svg" viewBox="0 0 225.01 86.95"><defs><style>.cls-1{fill:#cc2162;}</style></defs><title>Asset 1</title><g id="Layer_2" data-name="Layer 2"><g id="Layer_1-2" data-name="Layer 1"><path class="cls-1" d="M12,12V43c0,6.89.16,13,11,13H33.48A24.49,24.49,0,1,1,56,67.89V68H54.28l-31,0H21A20.19,20.19,0,0,1,2.78,56.67C.89,52.85,0,47.72,0,40.19V.09S12-1.83,12,12ZM54.51,56A12.48,12.48,0,0,0,67,43.51s0,0,0,0A12.48,12.48,0,0,0,54.56,31h0a12.5,12.5,0,0,0,0,25Zm53-37A24.5,24.5,0,1,1,83,43.46,24.45,24.45,0,0,1,107.52,19Zm0,37A12.48,12.48,0,0,0,120,43.51s0,0,0,0A12.48,12.48,0,0,0,107.56,31h0a12.5,12.5,0,0,0,0,25Zm53-37A24.5,24.5,0,1,1,148,64.49V74.85C148,86.9,136,87,136,87V43h0A24.5,24.5,0,0,1,160.52,19Zm0,37A12.48,12.48,0,0,0,173,43.51s0,0,0,0A12.48,12.48,0,0,0,160.56,31h0a12.5,12.5,0,0,0,0,25Zm25.6,0H209V55.9a3.59,3.59,0,0,0,.5.05,3.5,3.5,0,0,0,0-7,3.59,3.59,0,0,0-.5.05v0h-6.43v0c-.19,0-.37,0-.56,0a15,15,0,0,1,0-30h23s.1,9.36-8.42,11.54c0,.15.08.3.12.46H202a3,3,0,0,0,0,6h7v0l.5,0a15.5,15.5,0,0,1,0,31c-.18,0-.33,0-.5,0v0H175a28.46,28.46,0,0,0,11.08-12Z"/></g></g></svg>