<svg xmlns="http://www.w3.org/2000/svg" width="208" height="168"><defs><filter filterUnits="userSpaceOnUse" id="a" x="-128" y="-5919" width="6736" height="6476"><feOffset in="SourceAlpha" dy="2"/><feGaussianBlur result="blurOut"/><feFlood flood-color="#C7870B" result="floodOut"/><feComposite operator="atop" in="floodOut" in2="blurOut"/><feComponentTransfer><feFuncA type="linear"/></feComponentTransfer><feMerge><feMergeNode/><feMergeNode in="SourceGraphic"/></feMerge></filter><filter id="b"><feOffset in="SourceAlpha" dy="3"/><feGaussianBlur result="blurOut"/><feFlood flood-color="#FFF7EC" result="floodOut"/><feComposite operator="out" in="floodOut" in2="blurOut" result="compOut"/><feComposite operator="in" in="compOut" in2="SourceAlpha"/><feComponentTransfer><feFuncA type="linear"/></feComponentTransfer><feBlend in2="SourceGraphic"/></filter><filter id="c"><feOffset in="SourceAlpha" dy="-4"/><feGaussianBlur result="blurOut"/><feFlood flood-color="#D18C05" result="floodOut"/><feComposite operator="out" in="floodOut" in2="blurOut" result="compOut"/><feComposite operator="in" in="compOut" in2="SourceAlpha"/><feComponentTransfer><feFuncA type="linear"/></feComponentTransfer><feBlend in2="SourceGraphic"/></filter><filter id="d"><feOffset in="SourceAlpha" dy="-3"/><feGaussianBlur result="blurOut"/><feFlood flood-color="#D18C05" result="floodOut"/><feComposite operator="out" in="floodOut" in2="blurOut" result="compOut"/><feComposite operator="in" in="compOut" in2="SourceAlpha"/><feComponentTransfer><feFuncA type="linear"/></feComponentTransfer><feBlend in2="SourceGraphic"/></filter><filter id="e"><feOffset in="SourceAlpha" dy="3"/><feGaussianBlur result="blurOut"/><feFlood flood-color="#FEFF90" result="floodOut"/><feComposite operator="out" in="floodOut" in2="blurOut" result="compOut"/><feComposite operator="in" in="compOut" in2="SourceAlpha"/><feComponentTransfer><feFuncA type="linear"/></feComponentTransfer><feBlend in2="SourceGraphic"/></filter><linearGradient id="f" x1="0%" x2="0%" y1="100%" y2="0%"><stop offset="0%" stop-color="#EDE619"/><stop offset="100%" stop-color="#FFCB16"/></linearGradient><filter filterUnits="userSpaceOnUse" id="g" x="70" y="61" width="72" height="61"><feOffset in="SourceAlpha" dy="4"/><feGaussianBlur result="blurOut" stdDeviation="2"/><feFlood flood-color="#906100" result="floodOut"/><feComposite operator="atop" in="floodOut" in2="blurOut"/><feComponentTransfer><feFuncA type="linear" slope=".39"/></feComponentTransfer><feMerge><feMergeNode/><feMergeNode in="SourceGraphic"/></feMerge></filter><filter id="h"><feOffset in="SourceAlpha" dy="2"/><feGaussianBlur result="blurOut"/><feFlood flood-color="#FFF" result="floodOut"/><feComposite operator="out" in="floodOut" in2="blurOut" result="compOut"/><feComposite operator="in" in="compOut" in2="SourceAlpha"/><feComponentTransfer><feFuncA type="linear"/></feComponentTransfer><feBlend in2="SourceGraphic"/></filter></defs><path d="M0 0h208v168H0V0z" fill="none"/><g filter="url(#b)"><path fill-rule="evenodd" fill="#F8C11A" d="M47.09 118C27.181 118 27 98 27 98h77v20H47.09zM17 74h77v20H37.09C17.182 94 17 74 17 74zM7 50h77v20H27.09C7.182 70 7 50 7 50z" filter="url(#c)"/><path fill-rule="evenodd" fill="#F8C11A" d="M181.91 70H125V50h77s-.182 20-20.09 20zm-10 24H115V74h77s-.182 20-20.09 20zm-10 24H105V98h77s-.182 20-20.09 20z" filter="url(#d)"/><path fill-rule="evenodd" fill="#FFFCEA" d="M40 54H13s.064 7 7.044 7H40v-7zM50 78H23s.063 7 7.044 7H50v-7zM60 102H33s.064 7.001 7.044 7.001H60V102zM171 54h27s-.064 7-7.045 7H171v-7zM161 78h27s-.064 7-7.045 7H161v-7zM151.001 102H178s-.064 7.001-7.045 7.001h-19.954V102z"/><path fill-rule="evenodd" fill="#C07204" d="M105 30c29.823 0 54 24.177 54 54s-24.177 54-54 54-54.001-24.177-54.001-54S75.177 30 105 30z"/><path fill-rule="evenodd" opacity=".502" fill="#E4E210" d="M105 30c29.823 0 54 24.177 54 54s-24.177 54-54 54-54.001-24.177-54.001-54S75.177 30 105 30z"/><path fill-rule="evenodd" opacity=".659" fill="#FFD929" d="M105 30c29.823 0 54 24.177 54 54s-24.177 54-54 54-54.001-24.177-54.001-54S75.177 30 105 30z"/><path fill-rule="evenodd" opacity=".2" fill="#FFF555" d="M80.777 49.709c-.067.35-.655.494-.615.862.104.971-.545 2.077-.344 1.118.031-.146-.177-.998-.294-.965-.067.019-.109.172-.167.238-.128.15-.264.253-.364.408-.326.504-.408 1.242-.245 2.043.042.204.085.457.17.608.023.042.072.068.107.111.124.156.258.708.399.831.35-.356.362-.331.619-.659.113-.142.211-.311.315-.488.594-1.016.955-2.076.782-3.519-.047-.386-.059-.743-.298-1.154-.094.103-.031.388-.065.566zm1.289 1.583c.342.102-.124.876.101 1.294.296.545-1.168 1.452-1.047 1.716.176.384-.822.596-1.177.541.675-.565 1.236-2.068 1.363-2.89.129-.815.12-2.003-.342-2.953.29.001.485.412.617.791.205.59.418 1.02.485 1.501zm.179 5.533c-.297.2-.197.794-.552.903-.938.288-1.701 1.319-.896.756.123-.085.991-.232 1.006-.112.01.069-.115.168-.154.247-.086.176-.129.34-.232.494-.336.497-.985.864-1.787 1.031-.206.042-.456.103-.63.085-.047-.005-.091-.039-.145-.054-.192-.052-.755.044-.923-.036.19-.462.162-.461.363-.827.087-.158.203-.315.326-.481.703-.944 1.537-1.693 2.938-2.106.376-.109.709-.24 1.183-.183-.059.126-.346.182-.497.283zm-1.97-.553c-.229-.273-.76.459-1.234.418-.62-.055-.879 1.642-1.169 1.636-.425-.009-.226.987-.035 1.29.256-.84 1.42-1.946 2.128-2.388.7-.44 1.801-.902 2.86-.854-.115-.265-.572-.281-.974-.251-.624.045-1.106.02-1.576.149zm-1.838 5.746c-.338.227-.224.903-.628 1.026-1.066.328-1.933 1.498-1.018.859.139-.098 1.125-.264 1.144-.128.01.078-.132.191-.175.282-.099.199-.146.387-.264.56-.383.565-1.12.982-2.032 1.173-.234.047-.518.116-.715.096-.054-.006-.104-.045-.164-.061-.22-.059-.859.05-1.051-.041.216-.525.184-.524.414-.94.098-.18.23-.359.37-.547.799-1.073 1.748-1.924 3.338-2.392.428-.125.806-.274 1.345-.21-.066.144-.393.207-.564.323zm-2.239-.63c-.261-.31-.864.524-1.403.477-.703-.063-.998 1.865-1.329 1.858-.483-.011-.257 1.122-.038 1.466.289-.954 1.613-2.211 2.418-2.714.795-.5 2.046-1.024 3.25-.971-.132-.3-.65-.318-1.107-.284-.71.05-1.258.023-1.791.168zm-.37 6.607c-.387.26-.257 1.035-.719 1.176-1.222.375-2.216 1.716-1.168.984.161-.112 1.29-.302 1.312-.147.012.09-.151.22-.201.323-.114.228-.168.443-.303.642-.438.648-1.282 1.125-2.326 1.343-.269.055-.594.134-.819.111-.062-.007-.119-.051-.189-.071-.251-.067-.984.058-1.204-.046.247-.602.212-.601.474-1.078.113-.206.264-.41.425-.626.915-1.228 2.001-2.204 3.823-2.74.491-.143.924-.313 1.541-.24-.077.166-.45.237-.646.369zm-2.565-.72c-.299-.356-.99.598-1.607.546-.806-.073-1.144 2.137-1.523 2.129-.553-.013-.294 1.285-.045 1.679.333-1.094 1.849-2.535 2.772-3.11.911-.572 2.344-1.174 3.723-1.112-.151-.343-.745-.365-1.269-.326-.812.058-1.441.026-2.051.194zm1.152 7.269c-.478.323-.318 1.28-.889 1.455-1.512.464-2.741 2.124-1.445 1.218.198-.139 1.596-.373 1.623-.181.014.11-.187.272-.249.398-.139.284-.207.549-.375.796-.541.8-1.585 1.392-2.878 1.661-.333.067-.734.165-1.014.137-.075-.008-.147-.063-.233-.087-.31-.084-1.217.07-1.489-.059.307-.744.262-.742.586-1.332a7.17 7.17 0 0 1 .525-.775c1.132-1.52 2.477-2.727 4.732-3.391.606-.176 1.142-.386 1.906-.297-.095.205-.558.295-.8.457zm-3.174-.891c-.368-.439-1.224.741-1.988.675-.998-.089-1.415 2.645-1.884 2.634-.683-.015-.363 1.591-.055 2.079.412-1.354 2.287-3.137 3.428-3.847 1.128-.709 2.901-1.453 4.607-1.377-.186-.426-.921-.452-1.569-.403-1.005.071-1.783.033-2.539.239zm2.891 7.804c-.46.578.109 1.685-.521 2.118-1.663 1.149-2.517 3.646-1.288 2.042.188-.246 1.801-1.071 1.909-.847.061.13-.122.404-.149.583-.06.399-.04.749-.148 1.114-.35 1.185-1.393 2.308-2.865 3.135-.379.211-.832.484-1.183.558-.096.019-.204-.021-.318-.017-.412.018-1.457.555-1.839.502.084-1.025.03-1.006.196-1.85.071-.365.202-.746.339-1.148.79-2.291 1.962-4.28 4.454-5.958.671-.45 1.244-.912 2.21-1.097-.036.287-.565.574-.797.865zm-4.219.135c-.621-.393-1.205 1.377-2.162 1.589-1.252.277-.699 3.772-1.275 3.94-.84.245.175 2.08.741 2.556-.024-1.809 1.57-4.706 2.687-6.013 1.1-1.299 2.973-2.889 5.084-3.453-.393-.448-1.299-.196-2.071.111-1.198.476-2.162.727-3.004 1.27zm5.732 8.884c.185-.35.681-.751.662-1.057-.971.38-1.477.973-2.089 1.572-2.269 2.232-3.1 4.533-3.476 7.074-.064.445-.125.867-.129 1.262-.008.912.045.881.159 1.966.407-.018 1.392-.782 1.817-.88.119-.026.239-.006.335-.045.353-.143.77-.517 1.124-.81 1.373-1.147 2.241-2.52 2.373-3.824.041-.401-.048-.761-.063-1.189-.008-.192.13-.513.04-.636-.155-.213-1.675.96-1.823 1.252-.968 1.912-.566-.858.943-2.377.571-.574-.238-1.618.127-2.308zm-4.37.958c-.724-.288-.986 1.668-1.943 2.076-1.25.53.01 4.066-.557 4.353-.828.418.59 2.134 1.273 2.52-.38-1.88.715-5.209 1.623-6.788.893-1.567 2.533-3.588 4.623-4.584-.497-.391-1.392.047-2.136.517-1.157.728-2.112 1.177-2.883 1.906zm9.609 6.051c-.266.799.781 1.765.277 2.476-1.333 1.881-1.267 4.896-.579 2.694.105-.336 1.512-1.852 1.714-1.653.118.115.028.48.071.682.092.453.252.82.28 1.254.091 1.408-.586 3.022-1.842 4.483-.323.374-.7.845-1.049 1.06-.096.058-.227.058-.348.106-.435.18-1.345 1.166-1.776 1.258-.313-1.134-.364-1.092-.518-2.063-.067-.419-.077-.879-.088-1.364-.053-2.767.419-5.359 2.432-8.133.544-.743.977-1.464 1.941-2.039.074.321-.381.836-.515 1.239zm-4.474 1.792c.69-.912 1.624-1.557 2.724-2.535.707-.632 1.581-1.256 2.178-.928-2.043 1.429-3.426 3.866-4.097 5.69-.682 1.838-1.253 5.57-.514 7.502-.794-.29-2.607-1.864-1.801-2.455.551-.405-1.419-3.94-.184-4.725.943-.602.873-2.729 1.694-2.549zm13.819 4.27c-.329.99.967 2.187.341 3.067-1.651 2.332-1.568 6.067-.716 3.338.13-.416 1.873-2.294 2.125-2.048.144.143.034.596.087.846.114.561.312 1.016.346 1.553.114 1.745-.726 3.744-2.281 5.556-.4.462-.868 1.045-1.3 1.312-.118.072-.281.072-.43.133-.539.222-1.668 1.442-2.201 1.557-.388-1.405-.453-1.353-.642-2.556-.083-.519-.096-1.089-.109-1.689-.067-3.429.519-6.641 3.014-10.078.673-.921 1.209-1.814 2.404-2.526.092.397-.472 1.035-.638 1.535zm-5.543 2.22c-1.018-.222-.931 2.412-2.101 3.159-1.529.972.912 5.353.228 5.854-.997.732 1.248 2.682 2.234 3.041-.917-2.394-.211-7.017.636-9.295.83-2.259 2.544-5.28 5.076-7.05-.741-.405-1.823.367-2.699 1.15-1.362 1.212-2.52 2.011-3.374 3.141zM75.197 52.48c-.048-.227.027-.594-.097-.726-.298.534-.305.992-.358 1.491-.19 1.857.299 3.21 1.082 4.502.138.227.269.441.415.621.339.416.352.383.811.832.178-.16.338-.872.494-1.075.044-.056.105-.091.135-.145.106-.196.155-.522.205-.786.192-1.032.07-1.978-.36-2.617-.132-.198-.309-.328-.476-.517-.075-.084-.133-.28-.22-.303-.151-.038-.4 1.059-.356 1.247.279 1.226-.58-.179-.466-1.43.043-.473-.716-.644-.809-1.094zm-1.622 2.062c.075-.618.34-1.177.591-1.938.161-.49.402-1.022.774-1.03-.573 1.23-.557 2.757-.374 3.801.181 1.054.935 2.971 1.814 3.682-.455.08-1.742-.171-1.524-.669.149-.341-1.751-1.476-1.382-2.182.28-.54-.337-1.526.101-1.664zm-5.368 2.155c-.164-.225-.265-.663-.465-.746-.062.731.157 1.235.348 1.807.712 2.126 1.917 3.369 3.417 4.398.262.179.512.35.761.475.579.29.576.246 1.302.514.115-.263-.063-1.123.007-1.421.02-.083.07-.153.076-.225.018-.267-.09-.647-.165-.961-.302-1.224-.905-2.199-1.693-2.689-.243-.151-.5-.207-.777-.331-.125-.055-.286-.242-.391-.224-.185.032.088 1.356.227 1.54.915 1.206-.722.089-1.218-1.336-.187-.539-1.104-.354-1.429-.801zm-.753 3.055c-.223-.713-.211-1.455-.314-2.412-.066-.616-.066-1.317.337-1.509-.017 1.629.757 3.294 1.475 4.346.721 1.064 2.498 2.793 3.813 3.14-.459.31-1.993.669-2.001.016-.005-.446-2.648-.755-2.596-1.709.04-.73-1.124-1.506-.714-1.872zm-4.311 1.995c-.235-.239-.431-.742-.683-.807.054.879.402 1.44.726 2.086 1.214 2.404 2.861 3.672 4.819 4.638.343.168.67.328.988.433.736.246.725.194 1.634.387.091-.331-.27-1.321-.238-1.688.009-.102.057-.193.051-.28-.024-.321-.217-.753-.362-1.113-.571-1.402-1.455-2.457-2.476-2.904-.314-.137-.629-.16-.98-.26-.157-.043-.38-.238-.503-.198-.213.069.339 1.595.537 1.79 1.294 1.275-.843.23-1.679-1.378-.315-.608-1.371-.232-1.834-.706zm-.366 3.757c-.39-.809-.503-1.692-.79-2.81-.186-.721-.307-1.553.139-1.85.261 1.937 1.468 3.782 2.503 4.908 1.042 1.14 3.45 2.889 5.072 3.075-.491.448-2.251 1.136-2.373.363-.085-.529-3.277-.443-3.379-1.586-.08-.873-1.596-1.595-1.172-2.1zm-4.072 4c-.296-.229-.588-.757-.876-.79.192.963.661 1.531 1.116 2.197 1.706 2.474 3.715 3.629 6.024 4.402.406.134.79.262 1.157.331.85.161.831.106 1.864.183.05-.38-.497-1.42-.517-1.829-.005-.114.034-.222.014-.317-.076-.351-.355-.801-.568-1.177-.842-1.463-1.979-2.496-3.173-2.836-.369-.106-.72-.083-1.123-.141-.179-.025-.456-.206-.585-.144-.226.108.615 1.712.863 1.898 1.622 1.215-.896.379-2.063-1.272-.44-.625-1.55-.051-2.133-.505zm.162 4.205c-.552-.836-.81-1.795-1.296-2.987-.315-.767-.574-1.669-.126-2.064.581 2.102 2.193 3.959 3.506 5.047 1.323 1.105 4.248 2.676 6.068 2.639-.476.568-2.315 1.592-2.567.756-.173-.573-3.686.001-3.972-1.245-.22-.953-2.004-1.525-1.613-2.146zm-4.013 5.278c.73.324 1.741-.564 2.365-.025 1.651 1.425 4.505 1.647 2.489.796-.307-.13-1.606-1.59-1.399-1.761.12-.098.456.019.652-.001.435-.044.797-.159 1.209-.144 1.339.047 2.8.833 4.062 2.146.321.338.731.736.902 1.083.045.095.033.217.068.335.128.424.973 1.369 1.02 1.781-1.102.186-1.066.238-1.998.29-.403.023-.837-.01-1.295-.047-2.619-.21-5.024-.897-7.454-3.044-.651-.578-1.29-1.051-1.743-2.009.311-.039.754.437 1.122.6zm1.27 4.357c-.247.751 1.768.887 2.248 1.826.625 1.23 4.15-.28 4.481.275.482.808 2.139-.739 2.487-1.456-1.894.51-5.364-.376-7.036-1.19-1.659-.798-3.831-2.323-4.989-4.37-.365.528.142 1.404.671 2.126.821 1.121 1.342 2.057 2.138 2.789zm-2.29 5.718c.849.228 1.795-.908 2.565-.428 2.038 1.268 5.176 1.026 2.841.443-.356-.09-2.018-1.455-1.821-1.677.113-.127.498-.056.707-.111.466-.122.839-.307 1.29-.361 1.463-.176 3.183.431 4.779 1.642.408.313.921.676 1.166 1.024.065.096.073.231.13.352.213.439 1.292 1.323 1.413 1.762-1.164.39-1.117.44-2.12.655-.433.093-.912.13-1.416.169-2.881.215-5.611-.124-8.619-2.044-.806-.518-1.581-.923-2.236-1.887.33-.095.893.346 1.321.461zm2.126 4.518c-.991-.66-1.716-1.588-2.8-2.667-.699-.695-1.4-1.561-1.093-2.197 1.607 2.029 4.228 3.317 6.167 3.903 1.956.601 5.878.974 7.849.099-.257.838-1.792 2.801-2.454 2.003-.454-.545-4.026 1.692-4.915.462-.682-.94-2.895-.745-2.754-1.603zm.188 5.456c.942.219 1.943-1.067 2.809-.566 2.293 1.322 5.741.938 3.147.382-.396-.085-2.277-1.528-2.069-1.779.12-.145.547-.08.774-.149.51-.152.915-.37 1.409-.446 1.605-.248 3.523.358 5.327 1.633.461.331 1.039.711 1.322 1.086.076.102.089.251.157.384.25.475 1.472 1.409 1.621 1.889-1.266.471-1.213.525-2.311.799-.473.118-.999.177-1.554.239-3.166.342-6.186.07-9.571-1.935-.908-.542-1.776-.959-2.535-1.997.361-.116.998.348 1.474.46zm2.509 4.899c-1.115-.69-1.95-1.687-3.183-2.835-.796-.739-1.6-1.668-1.287-2.38 1.847 2.175 4.782 3.498 6.94 4.072 2.177.59 6.513.857 8.652-.179-.252.932-1.87 3.151-2.63 2.297-.52-.585-4.372 2.013-5.397.69-.787-1.01-3.217-.714-3.095-1.665zm1.941 6.33c-.539-.056-1.303-.478-1.682-.299.978 1.033 1.99 1.372 3.061 1.839 3.995 1.731 7.348 1.613 10.775.797.6-.144 1.169-.281 1.672-.477 1.166-.452 1.099-.504 2.425-1.198-.231-.504-1.703-1.361-2.044-1.848-.093-.136-.128-.297-.226-.399-.363-.372-1.05-.71-1.603-1.007-2.158-1.151-4.347-1.55-6.074-1.056-.532.153-.946.448-1.483.685-.241.107-.719.096-.83.271-.193.304 2.073 1.627 2.52 1.666 2.925.251-.807 1.149-3.507.016-1.021-.429-1.939 1.121-3.004 1.01zm3.438 5.03c-1.321-.603-2.376-1.581-3.89-2.671-.977-.7-1.989-1.608-1.744-2.434 2.331 2.132 5.737 3.177 8.186 3.509 2.472.345 7.266.037 9.47-1.397-.147 1.059-1.612 3.719-2.565 2.885-.653-.569-4.517 2.816-5.827 1.506-1.005-.999-3.63-.338-3.63-1.398zm5.107 4.285c-.602-.034-1.475-.465-1.889-.247 1.143 1.101 2.288 1.425 3.506 1.891 4.541 1.722 8.271 1.416 12.045.332.661-.193 1.288-.375 1.839-.619 1.275-.563 1.199-.619 2.639-1.459-.284-.551-1.969-1.429-2.373-1.954-.112-.146-.16-.325-.274-.433-.423-.395-1.207-.736-1.837-1.039-2.464-1.171-4.924-1.502-6.823-.861-.584.196-1.03.547-1.616.838-.262.132-.795.144-.91.345-.199.349 2.394 1.706 2.894 1.726 3.271.129-.839 1.322-3.907.2-1.16-.426-2.101 1.349-3.294 1.28zm4.094 5.426c-1.503-.605-2.73-1.639-4.474-2.775-1.125-.73-2.3-1.688-2.07-2.621 2.708 2.255 6.558 3.243 9.303 3.486 2.772.256 8.097-.334 10.477-2.046-.108 1.187-1.602 4.226-2.706 3.347-.758-.601-4.886 3.37-6.414 1.979-1.171-1.062-4.062-.189-4.116-1.37zm55.983-75.297c.067.35.655.494.615.862-.105.971.545 2.077.344 1.118-.031-.146.176-.998.294-.965.067.019.109.172.167.238.128.15.263.253.363.408.326.504.409 1.242.245 2.043-.042.204-.085.457-.169.608-.024.042-.073.068-.107.111-.125.156-.259.708-.399.831-.351-.356-.362-.331-.62-.659-.112-.142-.21-.311-.315-.488-.593-1.016-.954-2.076-.781-3.519.047-.386.059-.743.297-1.154.095.103.032.388.066.566zm-1.289 1.583c-.343.102.124.876-.102 1.294-.296.545 1.168 1.452 1.047 1.716-.175.384.822.596 1.178.541-.675-.565-1.236-2.068-1.363-2.89-.13-.815-.121-2.003.341-2.953-.289.001-.484.412-.615.791-.206.59-.42 1.02-.486 1.501zm-.179 5.533c.296.2.197.794.551.903.939.288 1.702 1.319.897.756-.123-.085-.991-.232-1.007-.112-.009.069.116.168.154.247.087.176.129.34.233.494.336.497.985.864 1.787 1.031.206.042.456.103.629.085.048-.005.091-.039.145-.054.193-.052.755.044.924-.036-.19-.462-.162-.461-.364-.827a4.43 4.43 0 0 0-.325-.481c-.703-.944-1.538-1.693-2.938-2.106-.376-.109-.709-.24-1.183-.183.059.126.346.182.497.283zm1.97-.553c.229-.273.76.459 1.234.418.62-.055.878 1.642 1.169 1.636.425-.009.225.987.034 1.29-.255-.84-1.419-1.946-2.128-2.388-.7-.44-1.8-.902-2.86-.854.116-.265.572-.281.974-.251.625.045 1.107.02 1.577.149zm1.838 5.746c.338.227.224.903.627 1.026 1.067.328 1.934 1.498 1.019.859-.139-.098-1.125-.264-1.144-.128-.011.078.131.191.175.282.099.199.146.387.264.56.383.565 1.119.982 2.032 1.173.234.047.517.116.714.096.054-.006.105-.045.165-.061.219-.059.859.05 1.05-.041-.215-.525-.183-.524-.413-.94-.098-.18-.231-.359-.369-.547-.8-1.073-1.749-1.924-3.34-2.392-.427-.125-.805-.274-1.345-.21.067.144.394.207.565.323zm2.239-.63c.26-.31.863.524 1.402.477.704-.063.999 1.865 1.33 1.858.483-.011.256 1.122.038 1.466-.29-.954-1.612-2.211-2.418-2.714-.796-.5-2.046-1.024-3.251-.971.132-.3.65-.318 1.108-.284.709.05 1.258.023 1.791.168zm.37 6.607c.387.26.256 1.035.719 1.176 1.222.375 2.215 1.716 1.167.984-.16-.112-1.29-.302-1.311-.147-.013.09.151.22.201.323.113.228.168.443.302.642.439.648 1.283 1.125 2.327 1.343.269.055.594.134.819.111.062-.007.119-.051.189-.071.251-.067.984.058 1.203-.046-.247-.602-.211-.601-.473-1.078-.113-.206-.265-.41-.424-.626-.916-1.228-2.003-2.204-3.825-2.74-.489-.143-.923-.313-1.541-.24.077.166.451.237.647.369zm2.566-.72c.298-.356.989.598 1.606.546.806-.073 1.144 2.137 1.523 2.129.552-.013.293 1.285.044 1.679-.333-1.094-1.848-2.535-2.771-3.11-.911-.572-2.344-1.174-3.723-1.112.15-.343.744-.365 1.268-.326.814.058 1.441.026 2.053.194zm-1.154 7.269c.479.323.319 1.28.89 1.455 1.512.464 2.74 2.124 1.445 1.218-.198-.139-1.597-.373-1.623-.181-.015.11.187.272.248.398.14.284.208.549.375.796.542.8 1.586 1.392 2.879 1.661.332.067.734.165 1.014.137.075-.008.147-.063.232-.087.311-.084 1.218.07 1.489-.059-.306-.744-.26-.742-.585-1.332-.14-.254-.328-.508-.525-.775-1.132-1.52-2.477-2.727-4.732-3.391-.606-.176-1.142-.386-1.906-.297.095.205.557.295.799.457zm3.175-.891c.368-.439 1.223.741 1.987.675.998-.089 1.416 2.645 1.885 2.634.683-.015.362 1.591.054 2.079-.411-1.354-2.285-3.137-3.427-3.847-1.129-.709-2.902-1.453-4.607-1.377.186-.426.92-.452 1.569-.403 1.005.071 1.782.033 2.539.239zm-2.891 7.804c.46.578-.109 1.685.52 2.118 1.663 1.149 2.518 3.646 1.288 2.042-.188-.246-1.801-1.071-1.909-.847-.06.13.123.404.149.583.06.399.04.749.148 1.114.35 1.185 1.394 2.308 2.866 3.135.378.211.831.484 1.183.558.096.019.204-.021.318-.017.411.018 1.458.555 1.839.502-.084-1.025-.03-1.006-.196-1.85-.072-.365-.202-.746-.339-1.148-.791-2.291-1.962-4.28-4.454-5.958-.671-.45-1.244-.912-2.21-1.097.036.287.565.574.797.865zm4.218.135c.621-.393 1.206 1.377 2.163 1.589 1.251.277.698 3.772 1.274 3.94.84.245-.175 2.08-.741 2.556.025-1.809-1.569-4.706-2.686-6.013-1.1-1.299-2.973-2.889-5.084-3.453.393-.448 1.298-.196 2.07.111 1.199.476 2.163.727 3.004 1.27zm-5.732 8.884c-.184-.35-.681-.751-.662-1.057.971.38 1.478.973 2.09 1.572 2.268 2.232 3.099 4.533 3.476 7.074.064.445.125.867.128 1.262.009.912-.045.881-.157 1.966-.409-.018-1.393-.782-1.819-.88-.118-.026-.238-.006-.334-.045-.353-.143-.771-.517-1.124-.81-1.373-1.147-2.242-2.52-2.374-3.824-.041-.401.049-.761.064-1.189.008-.192-.13-.513-.04-.636.155-.213 1.675.96 1.823 1.252.967 1.912.565-.858-.943-2.377-.571-.574.238-1.618-.128-2.308zm4.37.958c.724-.288.987 1.668 1.943 2.076 1.251.53-.01 4.066.557 4.353.828.418-.589 2.134-1.272 2.52.379-1.88-.715-5.209-1.623-6.788-.893-1.567-2.533-3.588-4.623-4.584.497-.391 1.392.047 2.136.517 1.157.728 2.111 1.177 2.882 1.906zm-9.608 6.051c.265.799-.781 1.765-.277 2.476 1.333 1.881 1.266 4.896.579 2.694-.105-.336-1.512-1.852-1.715-1.653-.117.115-.027.48-.069.682-.094.453-.253.82-.281 1.254-.092 1.408.586 3.022 1.841 4.483.324.374.701.845 1.05 1.06.096.058.226.058.348.106.434.18 1.345 1.166 1.775 1.258.314-1.134.365-1.092.519-2.063.066-.419.077-.879.087-1.364.054-2.767-.419-5.359-2.432-8.133-.543-.743-.976-1.464-1.941-2.039-.074.321.382.836.516 1.239zm4.474 1.792c-.69-.912-1.625-1.557-2.724-2.535-.707-.632-1.581-1.256-2.178-.928 2.043 1.429 3.426 3.866 4.096 5.69.683 1.838 1.254 5.57.514 7.502.795-.29 2.607-1.864 1.802-2.455-.551-.405 1.419-3.94.184-4.725-.943-.602-.873-2.729-1.694-2.549zm-13.818 4.27c.328.99-.968 2.187-.343 3.067 1.651 2.332 1.568 6.067.716 3.338-.129-.416-1.872-2.294-2.124-2.048-.145.143-.034.596-.087.846-.115.561-.312 1.016-.346 1.553-.114 1.745.726 3.744 2.28 5.556.401.462.869 1.045 1.301 1.312.118.072.281.072.43.133.539.222 1.667 1.442 2.201 1.557.388-1.405.452-1.353.642-2.556.082-.519.095-1.089.109-1.689.067-3.429-.52-6.641-3.014-10.078-.674-.921-1.209-1.814-2.404-2.526-.093.397.472 1.035.639 1.535zm5.542 2.22c1.018-.222.931 2.412 2.1 3.159 1.53.972-.911 5.353-.227 5.854.997.732-1.248 2.682-2.234 3.041.916-2.394.21-7.017-.637-9.295-.829-2.259-2.544-5.28-5.076-7.05.741-.405 1.823.367 2.7 1.15 1.362 1.212 2.519 2.011 3.374 3.141zM134.8 52.48c.047-.227-.026-.594.096-.726.298.534.305.992.358 1.491.19 1.857-.297 3.21-1.082 4.502a5.533 5.533 0 0 1-.414.621c-.34.416-.352.383-.811.832-.178-.16-.338-.872-.494-1.075-.044-.056-.106-.091-.135-.145-.106-.196-.155-.522-.205-.786-.192-1.032-.07-1.978.36-2.617.132-.198.308-.328.476-.517.075-.084.133-.28.22-.303.151-.038.399 1.059.356 1.247-.279 1.226.579-.179.466-1.43-.043-.473.716-.644.809-1.094zm1.622 2.062c-.075-.618-.341-1.177-.591-1.938-.161-.49-.403-1.022-.775-1.03.573 1.23.558 2.757.374 3.801-.181 1.054-.935 2.971-1.813 3.682.454.08 1.742-.171 1.524-.669-.15-.341 1.75-1.476 1.382-2.182-.28-.54.336-1.526-.101-1.664zm5.368 2.155c.164-.225.265-.663.465-.746.062.731-.158 1.235-.348 1.807-.712 2.126-1.917 3.369-3.417 4.398-.263.179-.513.35-.762.475-.577.29-.575.246-1.301.514-.115-.263.063-1.123-.007-1.421-.02-.083-.071-.153-.076-.225-.018-.267.09-.647.165-.961.302-1.224.905-2.199 1.693-2.689.242-.151.5-.207.776-.331.126-.055.286-.242.392-.224.185.032-.088 1.356-.228 1.54-.914 1.206.723.089 1.219-1.336.187-.539 1.103-.354 1.429-.801zm.752 3.055c.224-.713.212-1.455.314-2.412.068-.616.066-1.317-.336-1.509.017 1.629-.757 3.294-1.475 4.346-.722 1.064-2.498 2.793-3.813 3.14.459.31 1.992.669 2 .016.006-.446 2.649-.755 2.596-1.709-.039-.73 1.124-1.506.714-1.872zm4.313 1.995c.234-.239.43-.742.681-.807-.054.879-.401 1.44-.725 2.086-1.215 2.404-2.861 3.672-4.819 4.638-.344.168-.67.328-.988.433-.736.246-.726.194-1.634.387-.091-.331.269-1.321.238-1.688-.01-.102-.057-.193-.052-.28.025-.321.219-.753.362-1.113.571-1.402 1.456-2.457 2.476-2.904.314-.137.63-.16.98-.26.157-.043.381-.238.503-.198.214.069-.339 1.595-.536 1.79-1.294 1.275.842.23 1.678-1.378.316-.608 1.371-.232 1.836-.706zm.366 3.757c.388-.809.502-1.692.788-2.81.187-.721.308-1.553-.138-1.85-.261 1.937-1.469 3.782-2.504 4.908-1.041 1.14-3.45 2.889-5.071 3.075.491.448 2.251 1.136 2.373.363.084-.529 3.277-.443 3.378-1.586.081-.873 1.596-1.595 1.174-2.1zm4.071 4c.295-.229.587-.757.875-.79-.191.963-.661 1.531-1.116 2.197-1.705 2.474-3.715 3.629-6.024 4.402-.406.134-.789.262-1.157.331-.85.161-.831.106-1.863.183-.051-.38.497-1.42.517-1.829.005-.114-.034-.222-.014-.317.076-.351.355-.801.568-1.177.842-1.463 1.978-2.496 3.174-2.836.367-.106.719-.083 1.121-.141.181-.025.457-.206.587-.144.225.108-.617 1.712-.864 1.898-1.623 1.215.897.379 2.063-1.272.44-.625 1.55-.051 2.133-.505zm-.163 4.205c.552-.836.811-1.795 1.297-2.987.315-.767.573-1.669.126-2.064-.581 2.102-2.194 3.959-3.507 5.047-1.322 1.105-4.247 2.676-6.067 2.639.476.568 2.315 1.592 2.567.756.173-.573 3.686.001 3.972-1.245.22-.953 2.004-1.525 1.612-2.146zm4.014 5.278c-.73.324-1.741-.564-2.365-.025-1.652 1.425-4.505 1.647-2.49.796.307-.13 1.607-1.59 1.4-1.761-.12-.098-.457.019-.651-.001-.437-.044-.798-.159-1.211-.144-1.339.047-2.799.833-4.061 2.146-.322.338-.732.736-.903 1.083-.045.095-.032.217-.067.335-.128.424-.974 1.369-1.02 1.781 1.101.186 1.066.238 1.998.29.402.023.837-.01 1.296-.047 2.618-.21 5.023-.897 7.453-3.044.651-.578 1.29-1.051 1.743-2.009-.31-.039-.754.437-1.122.6zm-1.271 4.357c.247.751-1.768.887-2.248 1.826-.624 1.23-4.15-.28-4.48.275-.482.808-2.139-.739-2.488-1.456 1.894.51 5.365-.376 7.037-1.19 1.658-.798 3.831-2.323 4.988-4.37.365.528-.141 1.404-.671 2.126-.821 1.121-1.342 2.057-2.138 2.789zm2.29 5.718c-.848.228-1.794-.908-2.564-.428-2.038 1.268-5.176 1.026-2.842.443.357-.09 2.018-1.455 1.822-1.677-.113-.127-.499-.056-.707-.111-.466-.122-.84-.307-1.29-.361-1.463-.176-3.184.431-4.78 1.642-.408.313-.92.676-1.165 1.024-.065.096-.073.231-.131.352-.212.439-1.291 1.323-1.413 1.762 1.164.39 1.117.44 2.121.655.433.093.912.13 1.416.169 2.881.215 5.611-.124 8.618-2.044.806-.518 1.581-.923 2.237-1.887-.331-.095-.894.346-1.322.461zm-2.125 4.518c.99-.66 1.717-1.588 2.8-2.667.698-.695 1.399-1.561 1.092-2.197-1.607 2.029-4.228 3.317-6.166 3.903-1.956.601-5.878.974-7.85.099.257.838 1.792 2.801 2.455 2.003.454-.545 4.026 1.692 4.914.462.682-.94 2.895-.745 2.755-1.603zm-.188 5.456c-.943.219-1.943-1.067-2.81-.566-2.292 1.322-5.74.938-3.147.382.397-.085 2.278-1.528 2.07-1.779-.12-.145-.548-.08-.775-.149-.509-.152-.914-.37-1.408-.446-1.605-.248-3.524.358-5.327 1.633-.461.331-1.04.711-1.322 1.086-.076.102-.089.251-.157.384-.251.475-1.473 1.409-1.622 1.889 1.267.471 1.215.525 2.312.799.474.118.999.177 1.554.239 3.166.342 6.186.07 9.571-1.935.907-.542 1.776-.959 2.534-1.997-.36-.116-.997.348-1.473.46zm-2.509 4.899c1.115-.69 1.95-1.687 3.183-2.835.796-.739 1.6-1.668 1.286-2.38-1.847 2.175-4.782 3.498-6.939 4.072-2.178.59-6.513.857-8.652-.179.251.932 1.87 3.151 2.629 2.297.521-.585 4.373 2.013 5.398.69.786-1.01 3.217-.714 3.095-1.665zm-1.941 6.33c.538-.056 1.302-.478 1.681-.299-.977 1.033-1.989 1.372-3.06 1.839-3.995 1.731-7.348 1.613-10.775.797-.6-.144-1.169-.281-1.672-.477-1.166-.452-1.1-.504-2.425-1.198.23-.504 1.702-1.361 2.043-1.848.094-.136.129-.297.227-.399.362-.372 1.05-.71 1.603-1.007 2.157-1.151 4.347-1.55 6.074-1.056.532.153.945.448 1.484.685.239.107.718.096.828.271.193.304-2.073 1.627-2.519 1.666-2.925.251.806 1.149 3.507.016 1.021-.429 1.938 1.121 3.004 1.01zm-3.439 5.03c1.321-.603 2.377-1.581 3.891-2.671.976-.7 1.988-1.608 1.744-2.434-2.331 2.132-5.738 3.177-8.186 3.509-2.472.345-7.267.037-9.47-1.397.146 1.059 1.612 3.719 2.565 2.885.652-.569 4.516 2.816 5.827 1.506 1.004-.999 3.63-.338 3.629-1.398zm-5.107 4.285c.603-.034 1.476-.465 1.89-.247-1.143 1.101-2.288 1.425-3.506 1.891-4.542 1.722-8.271 1.416-12.046.332-.661-.193-1.287-.375-1.838-.619-1.276-.563-1.199-.619-2.639-1.459.283-.551 1.968-1.429 2.373-1.954.111-.146.159-.325.273-.433.423-.395 1.207-.736 1.838-1.039 2.464-1.171 4.924-1.502 6.823-.861.585.196 1.03.547 1.616.838.262.132.795.144.911.345.198.349-2.395 1.706-2.895 1.726-3.271.129.838 1.322 3.907.2 1.16-.426 2.101 1.349 3.293 1.28zm-4.093 5.426c1.503-.605 2.73-1.639 4.473-2.775 1.125-.73 2.3-1.688 2.071-2.621-2.708 2.255-6.558 3.243-9.303 3.486-2.772.256-8.097-.334-10.477-2.046.107 1.187 1.602 4.226 2.706 3.347.758-.601 4.886 3.37 6.414 1.979 1.171-1.062 4.061-.189 4.116-1.37zm-31.954 5.989c1.205 0 2.182-.952 2.182-2.126 0-1.173-.977-2.125-2.182-2.125s-2.182.952-2.182 2.125c0 1.174.977 2.126 2.182 2.126zm5.737-1.74c.966 0 1.749-.762 1.749-1.704 0-.94-.783-1.702-1.749-1.702-.965 0-1.748.762-1.748 1.702 0 .942.783 1.704 1.748 1.704zm-11.474 0c.965 0 1.748-.762 1.748-1.704 0-.94-.783-1.702-1.748-1.702-.966 0-1.749.762-1.749 1.702 0 .942.783 1.704 1.749 1.704zm33.245-70.915c6.642 6.754 10.729 15.943 10.729 26.069 0 20.739-17.135 37.551-38.274 37.551-21.138 0-38.274-16.812-38.274-37.551 0-10.126 4.087-19.315 10.73-26.069-7.336 7.026-11.892 16.832-11.892 27.685 0 21.37 17.656 38.693 39.436 38.693s39.436-17.323 39.436-38.693c0-10.853-4.556-20.659-11.891-27.685z"/><path fill-rule="evenodd" fill="#74FF78" d="M164.99 84.001a12.5 12.5 0 0 1-3.672 8.817 56.488 56.488 0 0 1-3.139 11.698c.839 3.076.47 6.542-1.227 9.481a12.502 12.502 0 0 1-7.611 5.806 57.364 57.364 0 0 1-8.54 8.54 12.508 12.508 0 0 1-5.807 7.612 12.496 12.496 0 0 1-9.483 1.226 56.494 56.494 0 0 1-11.692 3.138 12.517 12.517 0 0 1-8.82 3.675 12.504 12.504 0 0 1-8.821-3.676 56.537 56.537 0 0 1-11.69-3.137 12.509 12.509 0 0 1-9.484-1.226 12.505 12.505 0 0 1-5.806-7.613 57.304 57.304 0 0 1-8.539-8.539 12.505 12.505 0 0 1-7.613-5.806 12.506 12.506 0 0 1-1.226-9.483 56.53 56.53 0 0 1-3.138-11.694 12.507 12.507 0 0 1-3.672-8.819c0-3.391 1.411-6.575 3.671-8.82a56.621 56.621 0 0 1 3.139-11.697 12.507 12.507 0 0 1 1.226-9.48 12.504 12.504 0 0 1 7.613-5.807 57.304 57.304 0 0 1 8.539-8.539 12.503 12.503 0 0 1 5.806-7.612 12.502 12.502 0 0 1 9.485-1.227 56.537 56.537 0 0 1 11.69-3.137 12.505 12.505 0 0 1 8.82-3.675c3.391 0 6.575 1.413 8.82 3.675a56.492 56.492 0 0 1 11.692 3.137 12.502 12.502 0 0 1 9.483 1.225 12.507 12.507 0 0 1 5.806 7.613 57.337 57.337 0 0 1 8.542 8.541 12.502 12.502 0 0 1 7.61 5.806 12.498 12.498 0 0 1 1.227 9.48 56.553 56.553 0 0 1 3.14 11.698 12.509 12.509 0 0 1 3.671 8.819zM105 36c-26.51 0-48 21.49-48 48s21.49 48 48 48c26.509 0 48-21.49 48-48s-21.491-48-48-48z" filter="url(#e)"/><path stroke="#CC8B0C" fill="url(#f)" d="M164.99 84.001a12.5 12.5 0 0 1-3.672 8.817 56.488 56.488 0 0 1-3.139 11.698c.839 3.076.47 6.542-1.227 9.481a12.502 12.502 0 0 1-7.611 5.806 57.364 57.364 0 0 1-8.54 8.54 12.508 12.508 0 0 1-5.807 7.612 12.496 12.496 0 0 1-9.483 1.226 56.494 56.494 0 0 1-11.692 3.138 12.517 12.517 0 0 1-8.82 3.675 12.504 12.504 0 0 1-8.821-3.676 56.537 56.537 0 0 1-11.69-3.137 12.509 12.509 0 0 1-9.484-1.226 12.505 12.505 0 0 1-5.806-7.613 57.304 57.304 0 0 1-8.539-8.539 12.505 12.505 0 0 1-7.613-5.806 12.506 12.506 0 0 1-1.226-9.483 56.53 56.53 0 0 1-3.138-11.694 12.507 12.507 0 0 1-3.672-8.819c0-3.391 1.411-6.575 3.671-8.82a56.621 56.621 0 0 1 3.139-11.697 12.507 12.507 0 0 1 1.226-9.48 12.504 12.504 0 0 1 7.613-5.807 57.304 57.304 0 0 1 8.539-8.539 12.503 12.503 0 0 1 5.806-7.612 12.502 12.502 0 0 1 9.485-1.227 56.537 56.537 0 0 1 11.69-3.137 12.505 12.505 0 0 1 8.82-3.675c3.391 0 6.575 1.413 8.82 3.675a56.492 56.492 0 0 1 11.692 3.137 12.502 12.502 0 0 1 9.483 1.225 12.507 12.507 0 0 1 5.806 7.613 57.337 57.337 0 0 1 8.542 8.541 12.502 12.502 0 0 1 7.61 5.806 12.498 12.498 0 0 1 1.227 9.48 56.553 56.553 0 0 1 3.14 11.698 12.509 12.509 0 0 1 3.671 8.819zM105 36c-26.51 0-48 21.49-48 48s21.49 48 48 48c26.509 0 48-21.49 48-48s-21.491-48-48-48z"/><path fill-rule="evenodd" opacity=".749" fill="#FFF000" d="M164.99 84.001a12.5 12.5 0 0 1-3.672 8.817 56.488 56.488 0 0 1-3.139 11.698c.839 3.076.47 6.542-1.227 9.481a12.502 12.502 0 0 1-7.611 5.806 57.364 57.364 0 0 1-8.54 8.54 12.508 12.508 0 0 1-5.807 7.612 12.496 12.496 0 0 1-9.483 1.226 56.494 56.494 0 0 1-11.692 3.138 12.517 12.517 0 0 1-8.82 3.675 12.504 12.504 0 0 1-8.821-3.676 56.537 56.537 0 0 1-11.69-3.137 12.509 12.509 0 0 1-9.484-1.226 12.505 12.505 0 0 1-5.806-7.613 57.304 57.304 0 0 1-8.539-8.539 12.505 12.505 0 0 1-7.613-5.806 12.506 12.506 0 0 1-1.226-9.483 56.53 56.53 0 0 1-3.138-11.694 12.507 12.507 0 0 1-3.672-8.819c0-3.391 1.411-6.575 3.671-8.82a56.621 56.621 0 0 1 3.139-11.697 12.507 12.507 0 0 1 1.226-9.48 12.504 12.504 0 0 1 7.613-5.807 57.304 57.304 0 0 1 8.539-8.539 12.503 12.503 0 0 1 5.806-7.612 12.502 12.502 0 0 1 9.485-1.227 56.537 56.537 0 0 1 11.69-3.137 12.505 12.505 0 0 1 8.82-3.675c3.391 0 6.575 1.413 8.82 3.675a56.492 56.492 0 0 1 11.692 3.137 12.502 12.502 0 0 1 9.483 1.225 12.507 12.507 0 0 1 5.806 7.613 57.337 57.337 0 0 1 8.542 8.541 12.502 12.502 0 0 1 7.61 5.806 12.498 12.498 0 0 1 1.227 9.48 56.553 56.553 0 0 1 3.14 11.698 12.509 12.509 0 0 1 3.671 8.819zM105 36c-26.51 0-48 21.49-48 48s21.49 48 48 48c26.509 0 48-21.49 48-48s-21.491-48-48-48z"/><path fill-rule="evenodd" stroke="#AA7103" fill="#FFF0A5" d="M132.879 84.672l-.088.747c-.779 7.182-6.28 13.255-12.987 15.046-5.71 1.523-11.498-.218-16.172-4.7l-7.552-7.239-1.048 1.035c-3.924 3.872-8.44 4.919-12.25 3.048-2.789-1.374-4.828-4.13-5.533-7.367h-.012a10.634 10.634 0 0 1-.141-.87 10.482 10.482 0 0 1-.095-.918l.013.003c-.157-3.384 1.242-6.386 3.89-7.886 3.724-2.11 8.869-.719 13.594 3.812l1.203 1.153 7.62-8.115c5.269-5.613 12.141-7.806 18.615-5.548a16.158 16.158 0 0 1 5.826 3.596c3.782 3.63 5.771 8.902 5.117 14.203zm-42.106-1.235c-2.753-2.64-5.446-3.67-7.167-2.779-1.174.608-1.776 2.063-1.61 3.771.21 1.672 1.103 3.073 2.364 3.677 1.823.875 4.251-.017 6.566-2.482l1.008-1.074-1.161-1.113zm27.917-9.892c-3.556-1.308-7.313-.113-10.763 3.292l-7.926 7.821 7.826 7.504c3.098 2.97 6.437 4.03 9.747 3.036 4.067-1.219 7.371-5.305 7.712-9.827l.068-.814c.424-4.73-2.406-9.449-6.664-11.012zm-4.319 16.226c-.511.495-1.385.144-1.385-.555V78.783c0-.7.874-1.05 1.385-.555l5.388 5.217a.768.768 0 0 1 0 1.11l-5.388 5.216z" filter="url(#h)"/><path fill-rule="evenodd" fill="#FFFDF3" d="M132.879 84.672l-.088.747c-.779 7.182-6.28 13.255-12.987 15.046-5.71 1.523-11.498-.218-16.172-4.7l-7.552-7.239-1.048 1.035c-3.924 3.872-8.44 4.919-12.25 3.048-2.789-1.374-4.828-4.13-5.533-7.367h-.012a10.634 10.634 0 0 1-.141-.87 10.482 10.482 0 0 1-.095-.918l.013.003c-.157-3.384 1.242-6.386 3.89-7.886 3.724-2.11 8.869-.719 13.594 3.812l1.203 1.153 7.62-8.115c5.269-5.613 12.141-7.806 18.615-5.548a16.158 16.158 0 0 1 5.826 3.596c3.782 3.63 5.771 8.902 5.117 14.203zm-42.106-1.235c-2.753-2.64-5.446-3.67-7.167-2.779-1.174.608-1.776 2.063-1.61 3.771.21 1.672 1.103 3.073 2.364 3.677 1.823.875 4.251-.017 6.566-2.482l1.008-1.074-1.161-1.113zm27.917-9.892c-3.556-1.308-7.313-.113-10.763 3.292l-7.926 7.821 7.826 7.504c3.098 2.97 6.437 4.03 9.747 3.036 4.067-1.219 7.371-5.305 7.712-9.827l.068-.814c.424-4.73-2.406-9.449-6.664-11.012zm-4.319 16.226c-.511.495-1.385.144-1.385-.555V78.783c0-.7.874-1.05 1.385-.555l5.388 5.217a.768.768 0 0 1 0 1.11l-5.388 5.216z"/></g></svg>