<svg xmlns="http://www.w3.org/2000/svg" width="208" height="168"><defs><filter filterUnits="userSpaceOnUse" id="a" x="-128" y="-5519" width="6736" height="6476"><feOffset in="SourceAlpha" dy="2"/><feGaussianBlur result="blurOut"/><feFlood flood-color="#D21487" result="floodOut"/><feComposite operator="atop" in="floodOut" in2="blurOut"/><feComponentTransfer><feFuncA type="linear"/></feComponentTransfer><feMerge><feMergeNode/><feMergeNode in="SourceGraphic"/></feMerge></filter><filter id="b"><feOffset in="SourceAlpha" dy="3"/><feGaussianBlur result="blurOut"/><feFlood flood-color="#FFF6FC" result="floodOut"/><feComposite operator="out" in="floodOut" in2="blurOut" result="compOut"/><feComposite operator="in" in="compOut" in2="SourceAlpha"/><feComponentTransfer><feFuncA type="linear"/></feComponentTransfer><feBlend in2="SourceGraphic"/></filter><filter id="c"><feOffset in="SourceAlpha" dy="-3"/><feGaussianBlur result="blurOut"/><feFlood flood-color="#CD0E81" result="floodOut"/><feComposite operator="out" in="floodOut" in2="blurOut" result="compOut"/><feComposite operator="in" in="compOut" in2="SourceAlpha"/><feComponentTransfer><feFuncA type="linear"/></feComponentTransfer><feBlend in2="SourceGraphic"/></filter><filter id="d"><feOffset in="SourceAlpha" dy="-3"/><feGaussianBlur result="blurOut"/><feFlood flood-color="#CD0E81" result="floodOut"/><feComposite operator="out" in="floodOut" in2="blurOut" result="compOut"/><feComposite operator="in" in="compOut" in2="SourceAlpha"/><feComponentTransfer><feFuncA type="linear"/></feComponentTransfer><feBlend in2="SourceGraphic"/></filter><filter id="e"><feOffset in="SourceAlpha" dy="3"/><feGaussianBlur result="blurOut"/><feFlood flood-color="#FFB2E2" result="floodOut"/><feComposite operator="out" in="floodOut" in2="blurOut" result="compOut"/><feComposite operator="in" in="compOut" in2="SourceAlpha"/><feComponentTransfer><feFuncA type="linear"/></feComponentTransfer><feBlend in2="SourceGraphic"/></filter><linearGradient id="f" x1="0%" x2="0%" y1="100%" y2="0%"><stop offset="0%" stop-color="#FF71C9"/><stop offset="100%" stop-color="#FFBFE7"/></linearGradient><filter filterUnits="userSpaceOnUse" id="g" x="70" y="61" width="72" height="61"><feOffset in="SourceAlpha" dy="4"/><feGaussianBlur result="blurOut" stdDeviation="2"/><feFlood flood-color="#C90E7F" result="floodOut"/><feComposite operator="atop" in="floodOut" in2="blurOut"/><feComponentTransfer><feFuncA type="linear" slope=".39"/></feComponentTransfer><feMerge><feMergeNode/><feMergeNode in="SourceGraphic"/></feMerge></filter><filter id="h"><feOffset in="SourceAlpha" dy="2"/><feGaussianBlur result="blurOut"/><feFlood flood-color="#FFF3FA" result="floodOut"/><feComposite operator="out" in="floodOut" in2="blurOut" result="compOut"/><feComposite operator="in" in="compOut" in2="SourceAlpha"/><feComponentTransfer><feFuncA type="linear"/></feComponentTransfer><feBlend in2="SourceGraphic"/></filter></defs><path d="M0 0h208v168H0V0z" fill="none"/><g filter="url(#b)"><path fill-rule="evenodd" fill="#F63AAE" d="M47.09 118C27.181 118 27 98 27 98h77v20H47.09zM17 74h77v20H37.09C17.182 94 17 74 17 74zM7 50h77v20H27.09C7.182 70 7 50 7 50z" filter="url(#c)"/><path fill-rule="evenodd" fill="#F63AAE" d="M181.91 70H125V50h77s-.182 20-20.09 20zm-10 24H115V74h77s-.182 20-20.09 20zm-10 24H105V98h77s-.182 20-20.09 20z" filter="url(#d)"/><path fill-rule="evenodd" fill="#FFECF8" d="M40 54H13s.064 7 7.044 7H40v-7zM50 78H23s.063 7 7.044 7H50v-7zM60 102H33s.064 7.001 7.044 7.001H60V102zM171 54h27s-.064 7-7.045 7H171v-7zM161 78h27s-.064 7-7.045 7H161v-7zM151.001 102H178s-.064 7.001-7.045 7.001h-19.954V102z"/><path fill-rule="evenodd" fill="#D91E8E" d="M105 30c29.823 0 54 24.177 54 54s-24.177 54-54 54-54.001-24.177-54.001-54S75.177 30 105 30z"/><path fill-rule="evenodd" opacity=".761" fill="#FD5FC1" d="M105 30c29.823 0 54 24.177 54 54s-24.177 54-54 54-54.001-24.177-54.001-54S75.177 30 105 30z"/><path fill-rule="evenodd" fill="#FF85D0" d="M105 30c29.823 0 54 24.177 54 54s-24.177 54-54 54-54.001-24.177-54.001-54S75.177 30 105 30z"/><path fill-rule="evenodd" fill="#74FF78" d="M164.99 84.001a12.5 12.5 0 0 1-3.672 8.817 56.488 56.488 0 0 1-3.139 11.698c.839 3.076.47 6.542-1.227 9.481a12.504 12.504 0 0 1-7.611 5.806 57.364 57.364 0 0 1-8.54 8.54 12.513 12.513 0 0 1-5.807 7.613 12.5 12.5 0 0 1-9.483 1.225 56.492 56.492 0 0 1-11.692 3.137 12.517 12.517 0 0 1-8.82 3.677 12.503 12.503 0 0 1-8.821-3.677 56.537 56.537 0 0 1-11.69-3.137 12.513 12.513 0 0 1-9.484-1.225 12.509 12.509 0 0 1-5.806-7.615 57.25 57.25 0 0 1-8.539-8.538 12.505 12.505 0 0 1-7.613-5.806 12.505 12.505 0 0 1-1.226-9.483 56.586 56.586 0 0 1-3.139-11.695 12.506 12.506 0 0 1-3.671-8.818c0-3.391 1.411-6.575 3.671-8.82a56.621 56.621 0 0 1 3.139-11.697 12.507 12.507 0 0 1 1.226-9.48 12.503 12.503 0 0 1 7.613-5.807 57.25 57.25 0 0 1 8.539-8.538 12.507 12.507 0 0 1 5.806-7.614 12.506 12.506 0 0 1 9.485-1.226 56.537 56.537 0 0 1 11.69-3.137 12.503 12.503 0 0 1 8.82-3.675c3.391 0 6.576 1.413 8.821 3.675a56.563 56.563 0 0 1 11.691 3.137 12.502 12.502 0 0 1 9.483 1.225 12.513 12.513 0 0 1 5.807 7.613 57.364 57.364 0 0 1 8.54 8.54 12.506 12.506 0 0 1 7.611 5.807 12.498 12.498 0 0 1 1.227 9.48 56.553 56.553 0 0 1 3.14 11.698 12.509 12.509 0 0 1 3.671 8.819zM105 36c-26.51 0-48 21.49-48 48s21.49 48 48 48c26.509 0 48-21.49 48-48s-21.491-48-48-48z" filter="url(#e)"/><path stroke="#DB0E89" fill="url(#f)" d="M164.99 84.001a12.5 12.5 0 0 1-3.672 8.817 56.488 56.488 0 0 1-3.139 11.698c.839 3.076.47 6.542-1.227 9.481a12.504 12.504 0 0 1-7.611 5.806 57.364 57.364 0 0 1-8.54 8.54 12.513 12.513 0 0 1-5.807 7.613 12.5 12.5 0 0 1-9.483 1.225 56.492 56.492 0 0 1-11.692 3.137 12.517 12.517 0 0 1-8.82 3.677 12.503 12.503 0 0 1-8.821-3.677 56.537 56.537 0 0 1-11.69-3.137 12.513 12.513 0 0 1-9.484-1.225 12.509 12.509 0 0 1-5.806-7.615 57.25 57.25 0 0 1-8.539-8.538 12.505 12.505 0 0 1-7.613-5.806 12.505 12.505 0 0 1-1.226-9.483 56.586 56.586 0 0 1-3.139-11.695 12.506 12.506 0 0 1-3.671-8.818c0-3.391 1.411-6.575 3.671-8.82a56.621 56.621 0 0 1 3.139-11.697 12.507 12.507 0 0 1 1.226-9.48 12.503 12.503 0 0 1 7.613-5.807 57.25 57.25 0 0 1 8.539-8.538 12.507 12.507 0 0 1 5.806-7.614 12.506 12.506 0 0 1 9.485-1.226 56.537 56.537 0 0 1 11.69-3.137 12.503 12.503 0 0 1 8.82-3.675c3.391 0 6.576 1.413 8.821 3.675a56.563 56.563 0 0 1 11.691 3.137 12.502 12.502 0 0 1 9.483 1.225 12.513 12.513 0 0 1 5.807 7.613 57.364 57.364 0 0 1 8.54 8.54 12.506 12.506 0 0 1 7.611 5.807 12.498 12.498 0 0 1 1.227 9.48 56.553 56.553 0 0 1 3.14 11.698 12.509 12.509 0 0 1 3.671 8.819zM105 36c-26.51 0-48 21.49-48 48s21.49 48 48 48c26.509 0 48-21.49 48-48s-21.491-48-48-48z"/><path fill-rule="evenodd" fill="#F05EB9" d="M148.364 88.374c1.62-.977 2.971-1.203 5.049-1.751l.597-.158c.043 1.224-2.998 5.693-4.646 6.129l-.768.202c-.855.226-1.312.115-1.83-.334-1.201 1.362-1.305 2.182-1.772 3.916-.209.778-1.137 3.529-1.563 4.059l.09-.006.728-.406c.197-.242-.068-1.118.796-2.045.479-.514 1.309-1.052 2.23-1.295l.683-.18c1.292-.341 4.084-.428 5.057-.245.003.881-3.843 4.282-5.317 4.67l-.939.248c-.216-.323.036-.009-.496-.007-.198 0-.464-.099-.642-.149-.597-.164-.58-.193-1-.641-1.951 1.031-1.841 1.866-2.751 3.427a74.086 74.086 0 0 1-2.339 3.749l.993-.375c-.192-1.042 1.247-2.145 2.441-2.46 1.279-.338 2.519-.197 3.579-.064.649.08 1.08.097 1.679.219.439.09 1.245.402 1.573.402l.046.169c-.578.306-1.519 1.137-2.265 1.632-.73.485-1.842 1.177-2.845 1.442l-.684.18c-1.257.332-2.922-.015-3.324-1.12-1.988.525-2.477 1.762-3.463 2.876-.796.897-2.475 2.38-3.032 3.18l1.051-.17c-.024-.677.79-1.48 1.556-1.682l.683-.18c1.557-.411 6.719 1.133 7.247 2.06l-4.07 1.549-.341.091c-1.963.518-4.528.509-5.068-1.477l-1.11.293c-.987.26-2.503 1.563-3.076 2.019-.524.416-2.609 2.009-3.196 2.235l.755.016c1.181-1.339.634-.728 2.45-1.257.593-.172 2.107.311 2.594.537.837.387 4.025 2.05 4.326 2.877l-.768.202c-3.062.809-7.712 1.25-8.48-1.574l-.115-.42-1.925.322c-.26.039-2.459 1.21-2.549 1.326-.627.809.22 1.858.752 2.387.511.509 1.414.99 2.034 1.475 1.022.8.968.861 1.798 1.813l.302.916.024.085c.137.504.432 1.65-.029 1.914-.05-.271.003-.324-.076-.616l-.046-.169c-.945-3.475-6.063-3.787-6.539-5.537l-.092-.339c-.081-.299.152-.905.251-1.12l-1.568.651-1.235.507-.265.706-.373 1.764-.665-2.217c-.404-1.107-1.039-2.477-.34-3.269.312.579 1.115 1.431 1.803 1.249.789-.208 1.3-.458 2-.712 1.204-.436.848-.431 1.441-1.103-.534-.464-.933-.401-1.23-1.492l-.046-.17c-.482-1.772 1.323-6.247 2.369-6.798l.468 1.42.369 1.355c.639 2.348.782 5.059-1.465 5.663l-.117.293c1.188-.314 2.51-1.194 3.569-1.814.658-.385 1.025-.673 1.627-1.067.917-.602.802-.318 1.05-1.401-.762.024-1.402-.783-1.639-1.654l-.139-.509c-.377-1.385.366-5.758 1.149-6.203.365.676.904 1.247 1.32 2.08.28.56.695 1.625.933 2.499l.092.339c.326 1.199.13 3.052-1.241 3.425l-.114.398.119.044c.042.023 1.319-1.104 1.5-1.213.502-.302 1.023-.901 1.477-1.298.754-.657 2.405-1.887 2.195-3.03-1.125.035-2.014-1.013-2.359-2.283l-.093-.338c-.458-1.684-.262-4.132-.016-5.442.693 0 3.325 3.477 3.648 4.665l.207.762c.24.881-.159 2.122-.862 2.5l-.039.296.118.044c.002 0 .541-.65.601-.728.216-.282.397-.441.618-.718.45-.565.703-1.043 1.09-1.591.6-.852 1.914-2.182 1.602-3.442-1.732.457-2.969-1.496-3.451-3.266l-.232-.584-.424-3.509c.704.001 3.1 2.11 3.699 2.713 1.046 1.055 2.083 3.278.823 4.447l-.015.38.118.045c.021.012.331-.687.371-.788.129-.323.311-.514.451-.814.281-.6.498-1.031.798-1.615.302-.589 1.292-2.896 1.105-3.584l-.116-.424-.597.158c-.905.239-2.393-.862-2.867-1.657-.682-1.147-1.348-2.066-1.78-3.653l-.346-1.271c.725-.021 2.793 1.138 3.455 1.517.92.528 2.325 1.567 2.699 2.942.259.951-.065 1.112-.268 1.705l.092.339c.359-.443 1.725-6.421 1.518-6.94l-.311-.732c-.286.151-.355.275-.722.372-1.443.381-2.883-.803-3.656-1.668-1.258-1.406-1.5-1.947-2.495-3.79 1.781-.055 6.506 1.381 6.987 3.149.052.195-.002.107.006.362l.187-.047.083.702c.188-.383.249-2.786.063-3.466.296-.194.045.023.008-.491-.02-.276.004-.367-.006-.652-.015-.406-.028-.972-.134-1.365-.068-.246-.401-.418-.549-.671-.323.17-.358.366-.7.456l-.512.135c-1.579.417-2.808-.723-3.827-1.373-.341-.218-3.058-2.649-2.718-2.947.338-.296 3.965.121 4.468.184 1.035.128 3.074 1.074 3.393 2.246.071.262.073.613.033.811l.375.352c-.239-.963-.242-2.239-.532-3.307-.318-1.172-.617-2.258-.918-3.397l-.618-.557c-.455.161-.474.579-1.165.761l-.512.135c-1.399.37-2.817-.364-3.743-.896-.604-.346-2.751-1.669-2.988-2.32l.342-.091c1.875-.494 3.313-.512 4.864-.41 1.041.068 3.381.837 3.098 2.378l.498.265.077-.048-2.816-6.307-1.048-.561c-.438.497-.628.983-1.585 1.236l-.086.022c-1.828.483-6.345-1.213-6.915-2.203l1.929-.656 2.048-.541c1.804-.476 3.317-.131 4.378 1.021l.131.658.608.254.044-.117c.026-.047-2.046-3.102-2.257-3.455-.8-1.339-1.522-2.022-2.831-2.465.026.755-.785 1.387-1.664 1.618l-.683.181c-1.276.337-5.775-.492-6.178-1.184 1.803-.952 2.301-1.606 4.783-2.261l.086-.023c1.242-.327 3.246-.176 3.633 1.2l.66.119c-.727-.776-1.682-1.919-2.489-2.557-.506-.399-.718-.842-1.357-1.023-.635-.179-1.166-.256-1.805-.376-.774 3.38-8.066 1.404-8.531.605l2.175-1.311.074.108.196-.247c.159.028 2.481-.922 3.564-.902 1.046.02 2.068.187 2.432 1.363l1.218.102.063-.144-4.215-2.951c-.194.102-.508.315-.722.371-2.605.688-5.971-3.785-6.661-6.321 2.335.533 6.957 1.354 7.737 4.222.148.543.073.875-.019 1.276.418.362.93.493 1.384.851.412.324.943.688 1.381.984.652.442 2.133 1.789 2.669 1.996-.007-.201.033-.217-.029-.446l-.092-.339c-.046-.169-1.684-.47-2.235-2.496-.237-.872-.186-2.967-.055-3.678.131-.714.74-2.821.74-3.221.792.307 2.528 3.365 2.851 4.419.597 1.944 1.02 4.099-.898 4.779l.323 1.186c.268.986 1.883 2.138 2.497 2.916.473.6 2.298 2.436 2.561 2.944l.048-1.216c-.835.025-1.423-.858-1.686-1.824l-.023-.086c-.564-2.071.705-6.215 1.875-7.495l1.703 3.813-.086.038.207.762c.516 1.895.178 4.359-1.629 4.874l.324 2.097c.029.232 3.164 4.572 3.543 5.964l.164-.045.033-.914c-.398-.035-.789-.543-.921-1.028l-.161-.593c-.378-1.39.539-3.228 1.085-4.168.186-.32 2.336-3.774 2.556-2.966l.138.509c.567 2.083.387 3.131.434 4.823.031 1.121-.753 3.159-1.929 3.469l-.086.022c-.294.078-.347.025-.62.073-.369 1.612.053 2.287.691 3.91.562 1.432.977 2.895 1.419 4.521.083-.102.34-.769.305-.898-.042-.155-.483-.432-.641-1.011-.687-2.528 3.009-6.342 5.029-7.409.256 1.385-.11 3.679-.352 4.873-.256 1.267-.973 3.284-2.532 3.695-.489.129-.647.026-1.07.101.001.373-.339 1.322-.429 1.899-.063.406.212 1.786.29 2.311.244 1.635.33 2.79.413 4.453l.411-.765c-1.027-1.899.163-3.288 1.377-4.356.914-.805 3.148-2.284 4.668-2.685.562-.149-1.341 6.617-3.704 7.241-.195.051-.107-.003-.364.005l.046.169c-.834.221-1.104.091-1.675-.102-.19.555-.668 1.253-.783 1.838-.055.28-.093 1.854-.113 2.223-.041.731-.251 1.47-.255 2.142-.003.803-.342 1.57-.318 2.177l.588-.522c-.494-1.813.556-3.007 1.86-3.794zm-57.496 36.468l-.372-1.764-.265-.706-1.235-.507-1.568-.651c.099.215.332.821.251 1.12l-.092.339c-.476 1.75-5.594 2.062-6.539 5.537l-.046.169c-.079.292-.026.345-.076.616-.461-.264-.165-1.41-.028-1.914l.022-.085.303-.916c.829-.952.776-1.013 1.798-1.813.619-.485 1.523-.966 2.033-1.475.532-.529 1.38-1.578.754-2.387-.091-.116-2.29-1.287-2.55-1.326l-1.925-.322-.115.42c-.768 2.824-5.418 2.383-8.48 1.574l-.768-.202c.301-.827 3.489-2.49 4.326-2.877.487-.226 2.001-.709 2.594-.537 1.816.529 1.269-.082 2.45 1.257l.755-.016c-.587-.226-2.672-1.819-3.196-2.235-.574-.456-2.089-1.759-3.076-2.019l-1.11-.293c-.54 1.986-3.105 1.995-5.068 1.477l-.341-.091-4.071-1.549c.529-.927 5.691-2.471 7.248-2.06l.683.18c.766.202 1.58 1.005 1.556 1.682l1.051.17c-.557-.8-2.236-2.283-3.032-3.18-.986-1.114-1.474-2.351-3.463-2.876-.402 1.105-2.067 1.452-3.324 1.12l-.683-.18c-1.004-.265-2.116-.957-2.846-1.442-.745-.495-1.688-1.326-2.265-1.632l.046-.169c.328 0 1.134-.312 1.573-.402.599-.122 1.03-.139 1.679-.219 1.06-.133 2.3-.274 3.578.064 1.195.315 2.634 1.418 2.442 2.46l.993.375a74.104 74.104 0 0 1-2.34-3.749c-.909-1.561-.799-2.396-2.75-3.427-.42.448-.403.477-1 .641-.178.05-.444.149-.642.149-.531-.002-.281-.316-.496.007l-.939-.248c-1.474-.388-5.32-3.789-5.317-4.67.973-.183 3.766-.096 5.057.245l.683.18c.921.243 1.75.781 2.23 1.295.864.927.599 1.803.796 2.045l.728.406.09.006c-.426-.53-1.354-3.281-1.563-4.059-.467-1.734-.571-2.554-1.772-3.916-.518.449-.975.56-1.83.334l-.768-.202c-1.648-.436-4.689-4.905-4.646-6.129l.597.158c2.077.548 3.429.774 5.049 1.751 1.304.787 2.353 1.981 1.86 3.794l.589.522c.024-.607-.316-1.374-.32-2.177-.003-.672-.213-1.411-.254-2.142-.02-.369-.058-1.943-.113-2.223-.116-.585-.593-1.283-.783-1.838-.571.193-.841.323-1.675.102l.046-.169c-.257-.008-.169.046-.364-.005-2.364-.624-4.266-7.39-3.703-7.241 1.52.401 3.753 1.88 4.667 2.685 1.214 1.068 2.404 2.457 1.377 4.356l.411.765c.083-1.663.169-2.818.413-4.453.078-.525.353-1.905.29-2.311-.09-.577-.43-1.526-.429-1.899-.423-.075-.581.028-1.07-.101-1.56-.411-2.275-2.428-2.532-3.695-.242-1.194-.608-3.488-.352-4.873 2.02 1.067 5.716 4.881 5.029 7.409-.158.579-.599.856-.641 1.011-.036.129.222.796.305.898.442-1.626.857-3.089 1.419-4.521.638-1.623 1.06-2.298.691-3.91-.273-.048-.326.005-.621-.073l-.085-.022c-1.176-.31-1.96-2.348-1.929-3.469.047-1.692-.133-2.74.434-4.823l.138-.509c.22-.808 2.37 2.646 2.556 2.966.546.94 1.463 2.778 1.085 4.168l-.162.593c-.131.485-.522.993-.92 1.028l.033.914.163.045c.379-1.392 3.515-5.732 3.545-5.964l.323-2.097c-1.807-.515-2.145-2.979-1.629-4.874l.207-.762-.086-.038 1.704-3.813c1.169 1.28 2.438 5.424 1.874 7.495l-.023.086c-.263.966-.852 1.849-1.686 1.824l.048 1.216c.263-.508 2.088-2.344 2.561-2.944.614-.778 2.229-1.93 2.497-2.916l.323-1.186c-1.919-.68-1.495-2.835-.898-4.779.323-1.054 2.059-4.112 2.851-4.419-.001.4.61 2.507.74 3.221.13.711.182 2.806-.055 3.678-.551 2.026-2.188 2.327-2.235 2.496l-.092.339c-.062.229-.022.245-.029.446.536-.207 2.017-1.554 2.669-1.996.438-.296.969-.66 1.381-.984.454-.358.966-.489 1.384-.851-.092-.401-.167-.733-.019-1.276.78-2.868 5.402-3.689 7.737-4.222-.69 2.536-4.056 7.009-6.661 6.321-.214-.056-.528-.269-.722-.371l-4.215 2.951.063.144 1.219-.102c.363-1.176 1.385-1.343 2.431-1.363 1.083-.02 3.406.93 3.564.902l.196.247.074-.108 2.175 1.311c-.465.799-7.757 2.775-8.531-.605-.639.12-1.17.197-1.805.376-.639.181-.851.624-1.357 1.023-.807.638-1.762 1.781-2.489 2.557l.661-.119c.386-1.376 2.39-1.527 3.632-1.2l.085.023c2.483.655 2.981 1.309 4.784 2.261-.404.692-4.902 1.521-6.178 1.184l-.683-.181c-.879-.231-1.69-.863-1.664-1.618-1.309.443-2.031 1.126-2.831 2.465-.211.353-2.283 3.408-2.256 3.455l.043.117.608-.254.131-.658c1.062-1.152 2.574-1.497 4.378-1.021l2.048.541 1.929.656c-.57.99-5.087 2.686-6.915 2.203l-.086-.022c-.957-.253-1.147-.739-1.585-1.236l-1.048.561-2.816 6.307.077.048.498-.265c-.282-1.541 2.057-2.31 3.098-2.378 1.551-.102 2.989-.084 4.864.41l.341.091c-.236.651-2.382 1.974-2.987 2.32-.926.532-2.343 1.266-3.743.896l-.512-.135c-.691-.182-.71-.6-1.165-.761l-.618.557c-.302 1.139-.6 2.225-.918 3.397-.29 1.068-.293 2.344-.532 3.307l.375-.352a2.04 2.04 0 0 1 .033-.811c.32-1.172 2.358-2.118 3.393-2.246.503-.063 4.13-.48 4.468-.184.34.298-2.377 2.729-2.718 2.947-1.019.65-2.249 1.79-3.827 1.373l-.512-.135c-.342-.09-.378-.286-.7-.456-.148.253-.482.425-.548.671-.107.393-.121.959-.135 1.365-.01.285.014.376-.006.652-.037.514-.288.297.008.491-.185.68-.125 3.083.063 3.466l.084-.702.186.047c.008-.255-.046-.167.007-.362.48-1.768 5.205-3.204 6.986-3.149-.995 1.843-1.237 2.384-2.495 3.79-.773.865-2.213 2.049-3.656 1.668-.367-.097-.435-.221-.722-.372l-.311.732c-.207.519 1.159 6.497 1.518 6.94l.092-.339c-.203-.593-.527-.754-.268-1.705.374-1.375 1.779-2.414 2.698-2.942.662-.379 2.731-1.538 3.456-1.517l-.346 1.271c-.432 1.587-1.098 2.506-1.78 3.653-.473.795-1.961 1.896-2.867 1.657l-.598-.158-.115.424c-.187.688.803 2.995 1.105 3.584.301.584.517 1.015.798 1.615.14.3.323.491.451.814.039.101.35.8.371.788l.118-.045-.015-.38c-1.26-1.169-.223-3.392.823-4.447.599-.603 2.995-2.712 3.699-2.713l-.425 3.509-.231.584c-.482 1.77-1.72 3.723-3.451 3.266-.312 1.26 1.002 2.59 1.602 3.442.387.548.64 1.026 1.091 1.591.221.277.401.436.617.718.06.078.599.728.601.728l.119-.044-.04-.296c-.703-.378-1.102-1.619-.862-2.5l.207-.762c.323-1.188 2.955-4.665 3.648-4.665.246 1.31.442 3.758-.016 5.442l-.092.338c-.346 1.27-1.236 2.318-2.36 2.283-.21 1.143 1.441 2.373 2.195 3.03.454.397.975.996 1.477 1.298.181.109 1.458 1.236 1.5 1.213l.119-.044-.114-.398c-1.372-.373-1.567-2.226-1.241-3.425l.092-.339c.238-.874.654-1.939.933-2.499.416-.833.955-1.404 1.32-2.08.783.445 1.525 4.818 1.149 6.203l-.138.509c-.238.871-.878 1.678-1.641 1.654.249 1.083.134.799 1.051 1.401.602.394.968.682 1.627 1.067 1.059.62 2.381 1.5 3.569 1.814l-.116-.293c-2.248-.604-2.105-3.315-1.466-5.663l.369-1.355.468-1.42c1.047.551 2.851 5.026 2.369 6.798l-.046.17c-.297 1.091-.696 1.028-1.23 1.492.593.672.237.667 1.441 1.103.7.254 1.21.504 2 .712.688.182 1.491-.67 1.803-1.249.699.792.064 2.162-.34 3.269l-.666 2.217z"/><path fill-rule="evenodd" opacity=".38" fill="#FFCBEB" d="M164.99 84.001a12.5 12.5 0 0 1-3.672 8.817 56.488 56.488 0 0 1-3.139 11.698c.839 3.076.47 6.542-1.227 9.481a12.504 12.504 0 0 1-7.611 5.806 57.364 57.364 0 0 1-8.54 8.54 12.513 12.513 0 0 1-5.807 7.613 12.5 12.5 0 0 1-9.483 1.225 56.492 56.492 0 0 1-11.692 3.137 12.517 12.517 0 0 1-8.82 3.677 12.503 12.503 0 0 1-8.821-3.677 56.537 56.537 0 0 1-11.69-3.137 12.513 12.513 0 0 1-9.484-1.225 12.509 12.509 0 0 1-5.806-7.615 57.25 57.25 0 0 1-8.539-8.538 12.505 12.505 0 0 1-7.613-5.806 12.505 12.505 0 0 1-1.226-9.483 56.586 56.586 0 0 1-3.139-11.695 12.506 12.506 0 0 1-3.671-8.818c0-3.391 1.411-6.575 3.671-8.82a56.621 56.621 0 0 1 3.139-11.697 12.507 12.507 0 0 1 1.226-9.48 12.503 12.503 0 0 1 7.613-5.807 57.25 57.25 0 0 1 8.539-8.538 12.507 12.507 0 0 1 5.806-7.614 12.506 12.506 0 0 1 9.485-1.226 56.537 56.537 0 0 1 11.69-3.137 12.503 12.503 0 0 1 8.82-3.675c3.391 0 6.576 1.413 8.821 3.675a56.563 56.563 0 0 1 11.691 3.137 12.502 12.502 0 0 1 9.483 1.225 12.513 12.513 0 0 1 5.807 7.613 57.364 57.364 0 0 1 8.54 8.54 12.506 12.506 0 0 1 7.611 5.807 12.498 12.498 0 0 1 1.227 9.48 56.553 56.553 0 0 1 3.14 11.698 12.509 12.509 0 0 1 3.671 8.819zM105 36c-26.51 0-48 21.49-48 48s21.49 48 48 48c26.509 0 48-21.49 48-48s-21.491-48-48-48z"/><path fill-rule="evenodd" stroke="#DB188D" fill="#FFDDF2" d="M132.879 84.672l-.088.747c-.779 7.182-6.28 13.255-12.987 15.045-5.71 1.524-11.498-.217-16.172-4.699l-7.552-7.239-1.048 1.035c-3.924 3.873-8.44 4.919-12.25 3.048-2.789-1.374-4.828-4.13-5.533-7.367h-.012a10.634 10.634 0 0 1-.141-.87 10.482 10.482 0 0 1-.095-.918l.013.002c-.157-3.382 1.242-6.385 3.89-7.884 3.724-2.111 8.869-.72 13.594 3.811l1.203 1.153 7.62-8.115c5.269-5.613 12.141-7.806 18.615-5.548a16.17 16.17 0 0 1 5.826 3.595c3.782 3.631 5.771 8.903 5.117 14.204zm-42.106-1.235c-2.753-2.64-5.446-3.671-7.167-2.778-1.174.607-1.776 2.062-1.61 3.77.21 1.672 1.103 3.073 2.364 3.677 1.823.875 4.251-.017 6.566-2.483l1.008-1.073-1.161-1.113zm27.917-9.892c-3.556-1.308-7.313-.113-10.763 3.292l-7.926 7.821 7.826 7.504c3.098 2.97 6.437 4.03 9.747 3.036 4.067-1.219 7.371-5.305 7.712-9.828l.068-.813c.424-4.731-2.406-9.449-6.664-11.012zm-4.319 16.226c-.511.495-1.385.144-1.385-.555V78.783c0-.699.874-1.05 1.385-.555l5.388 5.216a.768.768 0 0 1 0 1.11l-5.388 5.217z" filter="url(#h)"/><path fill-rule="evenodd" fill="#F0FFF2" d="M132.879 84.672l-.088.747c-.779 7.182-6.28 13.255-12.987 15.045-5.71 1.524-11.498-.217-16.172-4.699l-7.552-7.239-1.048 1.035c-3.924 3.873-8.44 4.919-12.25 3.048-2.789-1.374-4.828-4.13-5.533-7.367h-.012a10.634 10.634 0 0 1-.141-.87 10.482 10.482 0 0 1-.095-.918l.013.002c-.157-3.382 1.242-6.385 3.89-7.884 3.724-2.111 8.869-.72 13.594 3.811l1.203 1.153 7.62-8.115c5.269-5.613 12.141-7.806 18.615-5.548a16.17 16.17 0 0 1 5.826 3.595c3.782 3.631 5.771 8.903 5.117 14.204zm-42.106-1.235c-2.753-2.64-5.446-3.671-7.167-2.778-1.174.607-1.776 2.062-1.61 3.77.21 1.672 1.103 3.073 2.364 3.677 1.823.875 4.251-.017 6.566-2.483l1.008-1.073-1.161-1.113zm27.917-9.892c-3.556-1.308-7.313-.113-10.763 3.292l-7.926 7.821 7.826 7.504c3.098 2.97 6.437 4.03 9.747 3.036 4.067-1.219 7.371-5.305 7.712-9.828l.068-.813c.424-4.731-2.406-9.449-6.664-11.012zm-4.319 16.226c-.511.495-1.385.144-1.385-.555V78.783c0-.699.874-1.05 1.385-.555l5.388 5.216a.768.768 0 0 1 0 1.11l-5.388 5.217z"/></g></svg>