<svg xmlns="http://www.w3.org/2000/svg" width="208" height="168"><defs><filter filterUnits="userSpaceOnUse" id="a" x="-128" y="-5119" width="6736" height="6476"><feOffset in="SourceAlpha" dy="2"/><feGaussianBlur result="blurOut"/><feFlood flood-color="#11C029" result="floodOut"/><feComposite operator="atop" in="floodOut" in2="blurOut"/><feComponentTransfer><feFuncA type="linear"/></feComponentTransfer><feMerge><feMergeNode/><feMergeNode in="SourceGraphic"/></feMerge></filter><filter id="b"><feOffset in="SourceAlpha" dy="3"/><feGaussianBlur result="blurOut"/><feFlood flood-color="#ECFFF0" result="floodOut"/><feComposite operator="out" in="floodOut" in2="blurOut" result="compOut"/><feComposite operator="in" in="compOut" in2="SourceAlpha"/><feComponentTransfer><feFuncA type="linear"/></feComponentTransfer><feBlend in2="SourceGraphic"/></filter><filter id="c"><feOffset in="SourceAlpha" dx="1.124" dy="-2.782"/><feGaussianBlur result="blurOut"/><feFlood flood-color="#0FBA27" result="floodOut"/><feComposite operator="out" in="floodOut" in2="blurOut" result="compOut"/><feComposite operator="in" in="compOut" in2="SourceAlpha"/><feComponentTransfer><feFuncA type="linear"/></feComponentTransfer><feBlend in2="SourceGraphic"/></filter><filter id="d"><feOffset in="SourceAlpha" dx="1.124" dy="-2.782"/><feGaussianBlur result="blurOut"/><feFlood flood-color="#0FBA27" result="floodOut"/><feComposite operator="out" in="floodOut" in2="blurOut" result="compOut"/><feComposite operator="in" in="compOut" in2="SourceAlpha"/><feComponentTransfer><feFuncA type="linear"/></feComponentTransfer><feBlend in2="SourceGraphic"/></filter><filter id="e"><feOffset in="SourceAlpha" dy="3"/><feGaussianBlur result="blurOut"/><feFlood flood-color="#B6FFAC" result="floodOut"/><feComposite operator="out" in="floodOut" in2="blurOut" result="compOut"/><feComposite operator="in" in="compOut" in2="SourceAlpha"/><feComponentTransfer><feFuncA type="linear"/></feComponentTransfer><feBlend in2="SourceGraphic"/></filter><linearGradient id="f" x1="0%" x2="0%" y1="100%" y2="0%"><stop offset="0%" stop-color="#38FF54"/><stop offset="100%" stop-color="#A4FFA9"/></linearGradient><filter filterUnits="userSpaceOnUse" id="g" x="70" y="61" width="72" height="61"><feOffset in="SourceAlpha" dy="4"/><feGaussianBlur result="blurOut" stdDeviation="2"/><feFlood flood-color="#0C891D" result="floodOut"/><feComposite operator="atop" in="floodOut" in2="blurOut"/><feComponentTransfer><feFuncA type="linear" slope=".39"/></feComponentTransfer><feMerge><feMergeNode/><feMergeNode in="SourceGraphic"/></feMerge></filter><filter id="h"><feOffset in="SourceAlpha" dy="2"/><feGaussianBlur result="blurOut"/><feFlood flood-color="#FFF" result="floodOut"/><feComposite operator="out" in="floodOut" in2="blurOut" result="compOut"/><feComposite operator="in" in="compOut" in2="SourceAlpha"/><feComponentTransfer><feFuncA type="linear"/></feComponentTransfer><feBlend in2="SourceGraphic"/></filter></defs><path fill="none" d="M0 0h208v168H0V0z"/><g filter="url(#b)"><path fill-rule="evenodd" fill="#14E230" d="M47.09 118C27.181 118 27 98 27 98h77v20H47.09zM17 74h77v20H37.09C17.182 94 17 74 17 74zM7 50h77v20H27.09C7.182 70 7 50 7 50z" filter="url(#c)"/><path fill-rule="evenodd" fill="#14E230" d="M181.91 70H125V50h77s-.182 20-20.09 20zm-10 24H115V74h77s-.182 20-20.09 20zm-10 24H105V98h77s-.182 20-20.09 20z" filter="url(#d)"/><path fill-rule="evenodd" fill="#5CFF73" d="M40 54H13s.064 7 7.044 7H40v-7zM50 78H23s.063 7 7.044 7H50v-7zM60 102H33s.064 7.001 7.044 7.001H60V102zM171 54h27s-.064 7-7.045 7H171v-7zM161 78h27s-.064 7-7.045 7H161v-7zM151.001 102H178s-.064 7.001-7.045 7.001h-19.954V102z"/><path fill-rule="evenodd" fill="#06961A" d="M105 30c29.823 0 54 24.177 54 54s-24.177 54-54 54-54.001-24.177-54.001-54S75.177 30 105 30z"/><path fill-rule="evenodd" opacity=".761" fill="#0ACB0E" d="M105 30c29.823 0 54 24.177 54 54s-24.177 54-54 54-54.001-24.177-54.001-54S75.177 30 105 30z"/><path fill-rule="evenodd" fill="#14D318" d="M105 30c29.823 0 54 24.177 54 54s-24.177 54-54 54-54.001-24.177-54.001-54S75.177 30 105 30z"/><path fill-rule="evenodd" opacity=".302" fill="#D9FFDC" d="M105 17.045C68.084 17.045 38.041 47.08 38.041 84S68.084 150.955 105 150.955c36.917 0 66.958-30.035 66.958-66.955S141.917 17.045 105 17.045zm43.676 114.63l-39.074-42.18 34.758 45.814a66.236 66.236 0 0 1-4.63 3.261l-31.172-48.346 26.298 51.188a66.193 66.193 0 0 1-5.139 2.422L107.4 90.768l17.008 55.013c-1.786.565-3.623 1.022-5.481 1.433l-12.756-56.118 7.19 57.061a63.971 63.971 0 0 1-5.639.465L104.9 91.21l-2.837 57.401a63.874 63.874 0 0 1-5.631-.486l7.196-57.029-12.756 56.064c-1.858-.414-3.687-.878-5.473-1.45l17-54.942-22.303 52.998a64.495 64.495 0 0 1-5.11-2.434l26.255-51.108-31.114 48.258a63.995 63.995 0 0 1-4.624-3.277l34.681-45.71-38.968 42.08a63.522 63.522 0 0 1-3.995-4.012l42.062-38.968-45.671 34.654a65.63 65.63 0 0 1-3.244-4.626l48.185-31.071-51.007 26.197a62.713 62.713 0 0 1-2.409-5.119L98.01 86.394l-54.809 16.954c-.565-1.787-1.015-3.623-1.422-5.475l55.903-12.708-56.839 7.167a63.633 63.633 0 0 1-.465-5.631l57.204-2.808-57.218-2.82c.093-1.896.257-3.773.5-5.623l56.818 7.163L41.85 69.922a66.514 66.514 0 0 1 1.479-5.448l54.681 16.91-52.744-22.181a62.992 62.992 0 0 1 2.401-5.113l50.886 26.144-48.07-30.995a62.894 62.894 0 0 1 3.237-4.632l45.563 34.576L57.328 40.32c1.273-1.39 2.638-2.697 4.023-3.974l38.833 41.937-34.538-45.52a67.396 67.396 0 0 1 4.624-3.244l30.971 48.035-26.126-50.858a63.179 63.179 0 0 1 5.095-2.419l22.189 52.734L85.47 22.305a61.673 61.673 0 0 1 5.445-1.493l12.713 55.871-7.168-56.815c1.843-.247 3.724-.385 5.617-.472l2.823 57.179 2.808-57.2c1.901.078 3.773.222 5.624.464l-7.161 56.844 12.706-55.908c1.851.408 3.688.862 5.474 1.423L107.4 77.011l22.24-52.873c1.75.721 3.45 1.54 5.123 2.408l-26.205 51.008 31.064-48.186a63.19 63.19 0 0 1 4.631 3.245l-34.651 45.67 38.96-42.061a66.78 66.78 0 0 1 4.009 3.991l-42.069 38.97 45.706-34.679a67.936 67.936 0 0 1 3.273 4.62l-48.251 31.11 51.096-26.251c.878 1.668 1.707 3.366 2.436 5.116l-52.988 22.285 54.932-16.986c.571 1.791 1.036 3.624 1.45 5.474l-56.053 12.741 57.018-7.188c.251 1.854.401 3.737.486 5.642l-57.39 2.826 57.404 2.819a66.524 66.524 0 0 1-.464 5.648l-57.054-7.195 56.111 12.752a64.31 64.31 0 0 1-1.437 5.492l-55.003-17.015 53.059 22.313a62.759 62.759 0 0 1-2.422 5.131L111.23 87.552l48.344 31.171a66.941 66.941 0 0 1-3.266 4.63l-45.806-34.758 42.176 39.074a63.807 63.807 0 0 1-4.002 4.006z"/><path fill-rule="evenodd" fill="#74FF78" d="M164.99 84.001a12.5 12.5 0 0 1-3.672 8.817 56.488 56.488 0 0 1-3.139 11.698c.839 3.076.47 6.542-1.227 9.481a12.502 12.502 0 0 1-7.611 5.806 57.364 57.364 0 0 1-8.54 8.54 12.508 12.508 0 0 1-5.807 7.612 12.501 12.501 0 0 1-9.483 1.227 56.555 56.555 0 0 1-11.692 3.137 12.517 12.517 0 0 1-8.82 3.675 12.504 12.504 0 0 1-8.821-3.676 56.537 56.537 0 0 1-11.69-3.137 12.509 12.509 0 0 1-9.484-1.226 12.505 12.505 0 0 1-5.806-7.613 57.304 57.304 0 0 1-8.539-8.539 12.505 12.505 0 0 1-7.613-5.806 12.506 12.506 0 0 1-1.226-9.483 56.53 56.53 0 0 1-3.138-11.694 12.507 12.507 0 0 1-3.672-8.819c0-3.391 1.411-6.575 3.671-8.82a56.621 56.621 0 0 1 3.139-11.697 12.507 12.507 0 0 1 1.226-9.48 12.504 12.504 0 0 1 7.613-5.807 57.304 57.304 0 0 1 8.539-8.539 12.503 12.503 0 0 1 5.806-7.612 12.502 12.502 0 0 1 9.485-1.227 56.537 56.537 0 0 1 11.69-3.137 12.505 12.505 0 0 1 8.82-3.675c3.391 0 6.575 1.413 8.82 3.675a56.492 56.492 0 0 1 11.692 3.137 12.502 12.502 0 0 1 9.483 1.225 12.507 12.507 0 0 1 5.806 7.613 57.337 57.337 0 0 1 8.542 8.541 12.502 12.502 0 0 1 7.61 5.806 12.498 12.498 0 0 1 1.227 9.48 56.553 56.553 0 0 1 3.14 11.698 12.509 12.509 0 0 1 3.671 8.819zM105 36c-26.51 0-48 21.49-48 48s21.49 48 48 48c26.509 0 48-21.49 48-48s-21.491-48-48-48z" filter="url(#e)"/><path stroke="#06AC1D" fill="url(#f)" d="M164.99 84.001a12.5 12.5 0 0 1-3.672 8.817 56.488 56.488 0 0 1-3.139 11.698c.839 3.076.47 6.542-1.227 9.481a12.502 12.502 0 0 1-7.611 5.806 57.364 57.364 0 0 1-8.54 8.54 12.508 12.508 0 0 1-5.807 7.612 12.501 12.501 0 0 1-9.483 1.227 56.555 56.555 0 0 1-11.692 3.137 12.517 12.517 0 0 1-8.82 3.675 12.504 12.504 0 0 1-8.821-3.676 56.537 56.537 0 0 1-11.69-3.137 12.509 12.509 0 0 1-9.484-1.226 12.505 12.505 0 0 1-5.806-7.613 57.304 57.304 0 0 1-8.539-8.539 12.505 12.505 0 0 1-7.613-5.806 12.506 12.506 0 0 1-1.226-9.483 56.53 56.53 0 0 1-3.138-11.694 12.507 12.507 0 0 1-3.672-8.819c0-3.391 1.411-6.575 3.671-8.82a56.621 56.621 0 0 1 3.139-11.697 12.507 12.507 0 0 1 1.226-9.48 12.504 12.504 0 0 1 7.613-5.807 57.304 57.304 0 0 1 8.539-8.539 12.503 12.503 0 0 1 5.806-7.612 12.502 12.502 0 0 1 9.485-1.227 56.537 56.537 0 0 1 11.69-3.137 12.505 12.505 0 0 1 8.82-3.675c3.391 0 6.575 1.413 8.82 3.675a56.492 56.492 0 0 1 11.692 3.137 12.502 12.502 0 0 1 9.483 1.225 12.507 12.507 0 0 1 5.806 7.613 57.337 57.337 0 0 1 8.542 8.541 12.502 12.502 0 0 1 7.61 5.806 12.498 12.498 0 0 1 1.227 9.48 56.553 56.553 0 0 1 3.14 11.698 12.509 12.509 0 0 1 3.671 8.819zM105 36c-26.51 0-48 21.49-48 48s21.49 48 48 48c26.509 0 48-21.49 48-48s-21.491-48-48-48z"/><path fill-rule="evenodd" opacity=".38" fill="#DEFFBD" d="M164.99 84.001a12.5 12.5 0 0 1-3.672 8.817 56.488 56.488 0 0 1-3.139 11.698c.839 3.076.47 6.542-1.227 9.481a12.502 12.502 0 0 1-7.611 5.806 57.364 57.364 0 0 1-8.54 8.54 12.508 12.508 0 0 1-5.807 7.612 12.501 12.501 0 0 1-9.483 1.227 56.555 56.555 0 0 1-11.692 3.137 12.517 12.517 0 0 1-8.82 3.675 12.504 12.504 0 0 1-8.821-3.676 56.537 56.537 0 0 1-11.69-3.137 12.509 12.509 0 0 1-9.484-1.226 12.505 12.505 0 0 1-5.806-7.613 57.304 57.304 0 0 1-8.539-8.539 12.505 12.505 0 0 1-7.613-5.806 12.506 12.506 0 0 1-1.226-9.483 56.53 56.53 0 0 1-3.138-11.694 12.507 12.507 0 0 1-3.672-8.819c0-3.391 1.411-6.575 3.671-8.82a56.621 56.621 0 0 1 3.139-11.697 12.507 12.507 0 0 1 1.226-9.48 12.504 12.504 0 0 1 7.613-5.807 57.304 57.304 0 0 1 8.539-8.539 12.503 12.503 0 0 1 5.806-7.612 12.502 12.502 0 0 1 9.485-1.227 56.537 56.537 0 0 1 11.69-3.137 12.505 12.505 0 0 1 8.82-3.675c3.391 0 6.575 1.413 8.82 3.675a56.492 56.492 0 0 1 11.692 3.137 12.502 12.502 0 0 1 9.483 1.225 12.507 12.507 0 0 1 5.806 7.613 57.337 57.337 0 0 1 8.542 8.541 12.502 12.502 0 0 1 7.61 5.806 12.498 12.498 0 0 1 1.227 9.48 56.553 56.553 0 0 1 3.14 11.698 12.509 12.509 0 0 1 3.671 8.819zM105 36c-26.51 0-48 21.49-48 48s21.49 48 48 48c26.509 0 48-21.49 48-48s-21.491-48-48-48z"/><path fill-rule="evenodd" stroke="#339A42" fill="#99FFA9" d="M132.879 84.672l-.088.747c-.779 7.182-6.28 13.255-12.987 15.046-5.71 1.523-11.498-.218-16.172-4.7l-7.552-7.239-1.048 1.035c-3.924 3.872-8.44 4.919-12.25 3.048-2.789-1.374-4.828-4.13-5.533-7.367h-.012a10.634 10.634 0 0 1-.141-.87 10.482 10.482 0 0 1-.095-.918l.013.003c-.157-3.384 1.242-6.386 3.89-7.886 3.724-2.11 8.869-.719 13.594 3.812l1.203 1.153 7.62-8.115c5.269-5.613 12.141-7.806 18.615-5.548a16.158 16.158 0 0 1 5.826 3.596c3.782 3.63 5.771 8.902 5.117 14.203zm-42.106-1.235c-2.753-2.64-5.446-3.67-7.167-2.779-1.174.608-1.776 2.063-1.61 3.771.21 1.672 1.103 3.073 2.364 3.677 1.823.875 4.251-.017 6.566-2.482l1.008-1.074-1.161-1.113zm27.917-9.892c-3.556-1.308-7.313-.113-10.763 3.292l-7.926 7.821 7.826 7.504c3.098 2.97 6.437 4.03 9.747 3.036 4.067-1.219 7.371-5.305 7.712-9.827l.068-.814c.424-4.73-2.406-9.449-6.664-11.012zm-4.319 16.226c-.511.495-1.385.144-1.385-.555V78.783c0-.7.874-1.05 1.385-.555l5.388 5.217a.768.768 0 0 1 0 1.11l-5.388 5.216z" filter="url(#h)"/><path fill-rule="evenodd" fill="#F0FFF2" d="M132.879 84.672l-.088.747c-.779 7.182-6.28 13.255-12.987 15.046-5.71 1.523-11.498-.218-16.172-4.7l-7.552-7.239-1.048 1.035c-3.924 3.872-8.44 4.919-12.25 3.048-2.789-1.374-4.828-4.13-5.533-7.367h-.012a10.634 10.634 0 0 1-.141-.87 10.482 10.482 0 0 1-.095-.918l.013.003c-.157-3.384 1.242-6.386 3.89-7.886 3.724-2.11 8.869-.719 13.594 3.812l1.203 1.153 7.62-8.115c5.269-5.613 12.141-7.806 18.615-5.548a16.158 16.158 0 0 1 5.826 3.596c3.782 3.63 5.771 8.902 5.117 14.203zm-42.106-1.235c-2.753-2.64-5.446-3.67-7.167-2.779-1.174.608-1.776 2.063-1.61 3.771.21 1.672 1.103 3.073 2.364 3.677 1.823.875 4.251-.017 6.566-2.482l1.008-1.074-1.161-1.113zm27.917-9.892c-3.556-1.308-7.313-.113-10.763 3.292l-7.926 7.821 7.826 7.504c3.098 2.97 6.437 4.03 9.747 3.036 4.067-1.219 7.371-5.305 7.712-9.827l.068-.814c.424-4.73-2.406-9.449-6.664-11.012zm-4.319 16.226c-.511.495-1.385.144-1.385-.555V78.783c0-.7.874-1.05 1.385-.555l5.388 5.217a.768.768 0 0 1 0 1.11l-5.388 5.216z"/></g></svg>