<svg xmlns="http://www.w3.org/2000/svg" width="682.5" height="54.5">
  <path fill-rule="evenodd" stroke="#000" opacity=".102" fill="#FFF" d="M513 47.498L492.001 26.5 513 5.501 533.999 26.5 513 47.498zm-9 4.999V53.5H178v-.003L204.996 26.5 178.997.5H504v.003L478.004 26.5 504 52.497zm-335-4.999L148.001 26.5 169 5.501 189.998 26.5 169 47.498z"/>
  <path fill-rule="evenodd" fill="#777681" d="M513.5 31.5l-4.499-4.5 4.499-4.499L518 27l-4.5 4.5zM164 27l4.5-4.499L172.999 27l-4.499 4.5L164 27z"/>
  <path fill-rule="evenodd" fill="#E5E5E5" d="M539 27.5v-1h143v1H539zm-539-1h143v1H0v-1z"/>
</svg>
